<?xml version="1.0" encoding="utf-8"?>
<!-- Generator: Adobe Illustrator 19.0.0, SVG Export Plug-In . SVG Version: 6.00 Build 0)  -->
<svg version="1.1" id="Layer_1" xmlns="http://www.w3.org/2000/svg" xmlns:xlink="http://www.w3.org/1999/xlink" x="0px" y="0px"
	 viewBox="0 0 227.6 167.9" style="enable-background:new 0 0 227.6 167.9;" xml:space="preserve">
<style type="text/css">
	.Drop_x0020_Shadow{fill:none;}
	.Outer_x0020_Glow_x0020_5_x0020_pt{fill:none;}
	.Blue_x0020_Neon{fill:none;stroke:#8AACDA;stroke-width:7;stroke-linecap:round;stroke-linejoin:round;}
	.Chrome_x0020_Highlight{fill:url(#SVGID_1_);stroke:#FFFFFF;stroke-width:0.3629;stroke-miterlimit:1;}
	.Jive_GS{fill:#FFDD00;}
	.Alyssa_GS{fill:#A6D0E4;}
	.st0{fill:#F0F6F7;}
</style>
<linearGradient id="SVGID_1_" gradientUnits="userSpaceOnUse" x1="-7.6207" y1="0" x2="-7.6207" y2="-1">
	<stop  offset="0" style="stop-color:#656565"/>
	<stop  offset="0.618" style="stop-color:#1B1B1B"/>
	<stop  offset="0.6292" style="stop-color:#545454"/>
	<stop  offset="0.9831" style="stop-color:#3E3E3E"/>
</linearGradient>
<path id="XMLID_218_" class="st0" d="M139.7,119.7c-8.1-20.3-8.3-48.2-19.6-57.1c-14.9-11.6-27.8-1.5-61.6-11.2
	c-12.7-3.7-30.8-8.9-42.2-21.1C-8.3,3.9,1.8-51.8,36-70.9c24.3-13.6,39.9,3.1,99.3,0.8c65.1-2.5,74-23.6,121.2-15.9
	c13,2.1,59.5,9.7,81.3,43.7c21.3,33.2,11.6,79.8-13.9,89.9c-23.9,9.5-53.1-16.7-77.4-2.2c-1.7,1-13.3,8.2-16,20.9
	c-1.5,7.4-0.8,12.7,2.7,19.7c22.8,46.5,4.4,69.8-18.7,78.1C191.4,172.3,157.5,164.3,139.7,119.7z"/>
<path id="XMLID_217_" class="st0" d="M54.2,60.9c10.1,13.3,6.6,28.2-4.6,39c-11.2,10.8-28.4,11.2-38.6-2.1
	c-10.1-13.3-7-37.8,6.4-44.6C32.3,45.7,44.1,47.6,54.2,60.9z"/>
<path id="XMLID_92_" class="st0" d="M92.1,71.5c4.7,6.2,3,13.1-2.3,18.2c-5.3,5.1-13.3,5.3-18-0.9C67,82.6,68.6,71.2,74.9,68
	C81.9,64.4,87.4,65.3,92.1,71.5z"/>
<path id="XMLID_145_" class="st0" d="M113.8,139c-8.7,0-15.8-7.1-15.8-15.8s7.1-15.8,15.8-15.8s15.8,7.1,15.8,15.8
	S122.5,139,113.8,139z M113.8,113.8c-5.2,0-9.5,4.2-9.5,9.5c0,5.2,4.2,9.5,9.5,9.5c5.2,0,9.5-4.2,9.5-9.5
	C123.3,118,119,113.8,113.8,113.8z"/>
</svg>
