<?xml version="1.0" encoding="utf-8"?>
<!-- Generator: Adobe Illustrator 19.0.0, SVG Export Plug-In . SVG Version: 6.00 Build 0)  -->
<svg version="1.1" id="Layer_1" xmlns="http://www.w3.org/2000/svg" xmlns:xlink="http://www.w3.org/1999/xlink" x="0px" y="0px"
	 viewBox="0 0 329.7 290.3" style="enable-background:new 0 0 329.7 290.3;" xml:space="preserve">
<style type="text/css">
	.Drop_x0020_Shadow{fill:none;}
	.Outer_x0020_Glow_x0020_5_x0020_pt{fill:none;}
	.Blue_x0020_Neon{fill:none;stroke:#8AACDA;stroke-width:7;stroke-linecap:round;stroke-linejoin:round;}
	.Chrome_x0020_Highlight{fill:url(#SVGID_1_);stroke:#FFFFFF;stroke-width:0.3629;stroke-miterlimit:1;}
	.Jive_GS{fill:#FFDD00;}
	.Alyssa_GS{fill:#A6D0E4;}
	.st0{fill:#F0F6F7;}
	.st1{fill:#E6EBED;}
	.st2{fill:#DCE2E5;}
	.st3{fill:#C0D0D8;}
	.st4{fill:#EFF4F4;}
	.st5{fill:#808791;}
	.st6{fill:#C7D8E2;}
	.st7{fill:#DCE8EF;}
	.st8{fill:#F0F7F7;}
	.st9{fill:#CEE8EF;}
	.st10{fill:#B2CAD3;}
	.st11{fill:#799DD3;}
	.st12{opacity:0.3;fill:#FFFFFF;}
	.st13{fill:#CAD3DB;}
	.st14{fill:#D8E1EA;}
	.st15{fill:#ED9558;}
	.st16{fill:#FFFFFF;}
	.st17{fill:#C97841;}
	.st18{fill:#5C81B7;}
	.st19{fill:#A5BDD6;}
	.st20{fill:#C4CBD6;}
	.st21{fill:#6F7475;}
	.st22{fill:#8A9596;}
	.st23{fill:#FFC197;}
	.st24{fill:#B5B5B5;}
	.st25{fill:#C8CDCE;}
	.st26{fill:#E2E2E2;}
	.st27{fill:#D6DDEA;}
	.st28{fill:#ED8C62;}
	.st29{fill:#FFAF84;}
	.st30{fill:#E8E8E8;}
	.st31{fill:#3962A8;}
	.st32{fill:#2D548C;}
	.st33{fill:#658BC1;}
	.st34{fill:#C8D6DB;}
	.st35{fill:#82AACE;}
	.st36{fill:#4E7CAF;}
	.st37{fill:#424344;}
</style>
<linearGradient id="SVGID_1_" gradientUnits="userSpaceOnUse" x1="0" y1="-6.473296e-002" x2="4.489659e-011" y2="-1.0647">
	<stop  offset="0" style="stop-color:#656565"/>
	<stop  offset="0.618" style="stop-color:#1B1B1B"/>
	<stop  offset="0.6292" style="stop-color:#545454"/>
	<stop  offset="0.9831" style="stop-color:#3E3E3E"/>
</linearGradient>
<g id="XMLID_210_">
	<g id="XMLID_211_">
		<path id="XMLID_218_" class="st0" d="M186.7,215.2c5.8-26.4,0.6-60.6,12.5-73.6c15.6-17,33.1-7,71.8-25.3
			c14.6-6.9,35.3-16.7,46.7-33.8c24.6-37,1.7-103.4-43.1-120.4c-31.9-12.1-47.4,11.3-119.1,19.6C76.8-9.1,62-33.3,6.8-15
			C-8.5-9.9-62.8,8.1-82.4,53.8c-19.2,44.6,1.5,99.9,34.1,107.5c30.6,7.1,60.6-30.4,92.6-17.2c2.3,0.9,17.6,7.5,23.2,22.6
			c3.3,8.8,3.4,15.4,0.6,24.6c-18.4,61.3,8.2,86.3,37.5,92.1C134.8,289.3,174.1,273.2,186.7,215.2z"/>
		<path id="XMLID_217_" class="st0" d="M281.3,169.8c6.4,29.8-7.8,50.4-30.3,58.2c-22.5,7.7-47.5-6.2-53.9-36
			c-6.4-29.8,13-65.9,36.3-65.5C259.2,126.9,274.9,140,281.3,169.8z"/>
		<path id="XMLID_213_" class="st1" d="M38.3,269.8c-10-7.5-16.5-17.9-17.9-28.5c-1.5-11.4,2.8-22.8,5.9-31.1
			c3.8-10.2,8-16,11.4-20.7c3.6-5.1,6.3-8.7,6.3-15.2c0-5.8-4.9-12.8-10.1-20.3c-3.4-4.8-6.8-9.8-9.4-14.9l0,0
			c-6.9-13.8-9-27.1-6.3-38.4c2.1-8.6,6.9-15.7,13.6-19.9c5.1-3.2,13-6.2,21.9-2.3c8.7,3.8,16.3,13.3,22.4,28.2
			c2,4.8,4.2,7.5,8.1,10c6.7,4.2,14.1,1.8,15.6,1.3c8.3-3,11.9-12,15.3-20.7c3-7.7,6.2-15.6,12.6-19.3c5.8-3.3,13.4-3,21.5,1
			c12.2,5.9,22.3,18.4,26.6,32.6c5.2,17.6,1.9,38.1-9.9,61.1c-7.6,14.7-14.8,20-24,26.8c-8,5.9-17.1,12.6-29,27.3
			c-10.5,13-15.7,23-19.9,31.1c-5,9.7-8.4,16-17.1,19.5c-4.5,1.8-9.6,2.4-14.9,1.9C53.4,278.3,45.5,275.2,38.3,269.8z M128,78.8
			c-6.1,3.6-9.1,11-12.2,18.8c-3.5,8.9-7.2,18.1-15.9,21.2c-1.5,0.5-9.2,3-16.1-1.4c-4.1-2.6-6.4-5.4-8.5-10.4
			c-16-38.8-37.2-29.3-43.3-25.4C25.7,85.8,21,92.6,19,101c-2.7,11-0.5,24,6.2,37.6l0,0c2.5,5,6,10,9.3,14.8
			c5.3,7.6,10.4,14.8,10.3,21c-0.1,6.9-2.8,10.6-6.6,15.9c-3.3,4.6-7.5,10.4-11.3,20.4c-3.1,8.2-7.3,19.4-5.9,30.5
			c1.4,10.4,7.8,20.5,17.6,27.9c11.8,8.9,26,11.7,37,7.3c8.4-3.3,11.5-9.3,16.6-19.1c4.2-8.1,9.5-18.2,20.1-31.3
			c12-14.8,21.1-21.5,29.2-27.5c9.1-6.7,16.3-12,23.7-26.4c11.7-22.7,15-42.9,9.8-60.2C170.9,98,160.9,85.7,149,79.8
			c-3.5-1.7-6.9-2.7-10.2-3.1C134.8,76.4,131.1,77,128,78.8z M24.9,138.8L24.9,138.8L24.9,138.8z"/>
	</g>
</g>
<path id="XMLID_212_" class="st2" d="M233.7,156.3c-3.7,0-7.1-0.8-10.2-2.3c-5.8-3-7.7-7.7-10.5-14.7c-2.4-5.9-5.3-13.2-11.7-22.9
	c-7.2-11-13.1-16.3-18.2-20.9c-5.9-5.3-10.6-9.5-14.8-20.2c-6.6-16.7-7.5-31.2-2.7-43c3.9-9.5,11.8-17.5,20.7-20.8
	c5.9-2.2,11.3-1.9,15,0.8c4.2,3,5.8,8.7,7.4,14.3c1.8,6.3,3.6,12.7,9.2,15.4c1,0.5,6,2.6,10.9,0.2c2.9-1.4,4.6-3.2,6.3-6.4
	c5.3-9.9,11.2-16,17.5-18c6.5-2.1,11.7,0.6,15,3.1c4.3,3.4,7.2,8.6,8,14.7c1.1,8-1.3,17.1-7,26.2l0,0c-2.1,3.4-4.9,6.6-7.5,9.7
	c-4.1,4.8-8.1,9.4-8.4,13.4c-0.4,4.5,1.2,7.2,3.3,11c2,3.5,4.5,7.8,6.5,15.1c1.6,6,3.8,14.2,2,22c-1.7,7.3-7,14-14.4,18.6
	C244.8,154.6,239,156.3,233.7,156.3z M193.7,10.5c-2.3,0-4.7,0.5-7.3,1.4c-8.7,3.2-16.5,11.1-20.3,20.4c-4.8,11.6-3.9,25.9,2.7,42.4
	c4.2,10.5,8.8,14.7,14.6,20c5.2,4.7,11.1,10,18.3,21.1c6.4,9.8,9.4,17.1,11.8,23.1c2.9,7.1,4.6,11.5,10.2,14.4
	c7.3,3.8,17.3,2.8,26.2-2.5c7.3-4.4,12.5-11,14.1-18.1c1.8-7.6-0.4-15.6-2-21.5c-1.9-7.3-4.4-11.5-6.4-15c-2.3-3.9-3.9-6.7-3.5-11.5
	c0.4-4.3,4.4-8.9,8.6-13.8c2.6-3.1,5.4-6.3,7.5-9.6l0,0c5.6-8.9,8-17.8,6.9-25.6c-0.8-5.9-3.6-11-7.8-14.3c-4-3.1-18-11.2-31.8,14.7
	c-1.8,3.3-3.6,5.1-6.6,6.6c-5.1,2.5-10.3,0.3-11.3-0.2c-5.8-2.8-7.7-9.4-9.5-15.8c-1.6-5.7-3.1-11-7.1-13.9
	C199.1,11.3,196.6,10.5,193.7,10.5z M268.5,61.4L268.5,61.4L268.5,61.4z"/>
<g id="XMLID_93_">
	<g id="XMLID_130_">
		<g id="XMLID_144_">
			<g id="XMLID_148_">
				<g id="XMLID_204_">
					<circle id="XMLID_209_" class="st3" cx="98" cy="53.9" r="14.4"/>
					<path id="XMLID_208_" class="st4" d="M111.3,53.8c0,4.4-2.1,8.3-5.4,10.7c-1,0.7-2.1,1.3-3.2,1.7c-0.5,0.2-1.1,0.4-1.6,0.5
						c-0.3,0.1-0.7,0.1-1,0.2c-0.7,0.1-1.4,0.2-2.1,0.2c-1.4,0-2.7-0.2-3.9-0.6c-5.4-1.7-9.3-6.7-9.3-12.7c0-2.1,0.5-4,1.3-5.8
						c1-2.1,2.6-4,4.6-5.3c0.5-0.3,0.9-0.6,1.4-0.8c1.1-0.5,2.2-0.9,3.5-1.2c0.8-0.1,1.6-0.2,2.4-0.2c5.6,0,10.4,3.5,12.3,8.5
						C111,50.5,111.3,52.2,111.3,53.8z"/>
					<path id="XMLID_207_" class="st5" d="M98,54.5c-0.2,0-0.4-0.1-0.5-0.2l-4.4-5.4c-0.2-0.3-0.2-0.7,0.1-0.9
						c0.3-0.2,0.7-0.2,0.9,0.1l4.4,5.4c0.2,0.3,0.2,0.7-0.1,0.9C98.3,54.5,98.2,54.5,98,54.5z"/>
					<circle id="XMLID_206_" class="st3" cx="98" cy="53.9" r="2.6"/>
					<path id="XMLID_205_" class="st3" d="M91.4,62.2c-0.2,0-0.3-0.1-0.4-0.2c-0.3-0.2-0.3-0.7-0.1-0.9l6.7-7.7
						c0.2-0.3,0.7-0.3,0.9-0.1c0.3,0.2,0.3,0.7,0.1,0.9L91.9,62C91.7,62.2,91.5,62.2,91.4,62.2z"/>
				</g>
				<g id="XMLID_185_">
					<path id="XMLID_203_" class="st6" d="M204.8,73.8L181,143c-0.4,1.2-1.7,1.8-2.8,1.4l-38.7-13.3c-1.2-0.4-1.8-1.7-1.4-2.8
						L161.8,59c0.4-1.2,1.7-1.8,2.8-1.4l38.7,13.3C204.6,71.4,205.2,72.6,204.8,73.8z"/>
					<path id="XMLID_202_" class="st7" d="M206.5,74.4l-23.8,69.2c-0.4,1.2-1.7,1.8-2.8,1.4l-38.7-13.3c-1.2-0.4-1.8-1.7-1.4-2.8
						l23.8-69.2c0.4-1.2,1.7-1.8,2.8-1.4l38.7,13.3C206.3,71.9,206.9,73.2,206.5,74.4z"/>
					<path id="XMLID_201_" class="st8" d="M201.6,76l-9,26.3l0,0l-7.4,21.5l0,0l-3.4,9.8l-0.8,2.3c-0.2,0.6-0.9,1-1.5,0.7l-18.5-6.4
						l-14.3-4.9c-0.6-0.2-1-0.9-0.8-1.5l8.8-25.5l11.8-34.3c0.2-0.6,0.8-0.9,1.5-0.8c0,0,0.1,0,0.1,0l5.6,1.9l12.4,4.3l14.8,5.1
						C201.5,74.7,201.8,75.4,201.6,76z"/>
					<g id="XMLID_199_">
						<path id="XMLID_200_" class="st6" d="M161.1,136.6L161.1,136.6c-1.1-0.4-1.7-1.6-1.3-2.7l0,0c0.4-1.1,1.6-1.7,2.7-1.3l0,0
							c1.1,0.4,1.7,1.6,1.3,2.7l0,0C163.4,136.3,162.2,136.9,161.1,136.6z"/>
					</g>
					<g id="XMLID_197_">
						<path id="XMLID_198_" class="st6" d="M170.6,62.8L170.6,62.8c-0.4-0.2-0.7-0.6-0.5-1.1l0,0c0.2-0.4,0.6-0.7,1.1-0.5l0,0
							c0.4,0.2,0.7,0.6,0.5,1.1l0,0C171.6,62.7,171.1,62.9,170.6,62.8z"/>
					</g>
					<path id="XMLID_196_" class="st9" d="M178.4,120.4l-1-0.3l1.4-4.1c0.7-1.9,0.5-4-0.4-5.9l-2.6-5.4c-0.8-1.7-0.1-3.8,1.6-4.6
						l5.4-2.6c1.9-0.9,3.2-2.5,3.9-4.4l1.4-4.1l1,0.3l-1.4,4.1c-0.8,2.2-2.3,4-4.4,5l-5.4,2.6c-1.2,0.6-1.7,2-1.1,3.2l2.6,5.4
						c1,2.1,1.2,4.5,0.4,6.7L178.4,120.4z"/>
					<path id="XMLID_195_" class="st9" d="M158.4,113.6l-1-0.3l1.4-4.1c0.8-2.2,2.3-4,4.4-5l5.4-2.6c1.2-0.6,1.7-2,1.1-3.2l-2.6-5.4
						c-1-2.1-1.2-4.5-0.4-6.7l1.4-4.1l1,0.3l-1.4,4.1c-0.7,1.9-0.5,4,0.4,5.9l2.6,5.4c0.8,1.7,0.1,3.8-1.6,4.6l-5.4,2.6
						c-1.9,0.9-3.2,2.5-3.9,4.4L158.4,113.6z"/>
					<path id="XMLID_194_" class="st10" d="M189.2,90.3c-0.1,0-0.2,0-0.3-0.1l-21.2-7.3c-0.5-0.2-0.8-0.8-0.6-1.3
						c0.2-0.5,0.8-0.8,1.3-0.6l21.2,7.3c0.5,0.2,0.8,0.8,0.6,1.3C190.1,90,189.7,90.3,189.2,90.3z"/>
					<path id="XMLID_193_" class="st10" d="M178.5,121.5c-0.1,0-0.2,0-0.3-0.1l-21.2-7.3c-0.5-0.2-0.8-0.8-0.6-1.3
						c0.2-0.5,0.8-0.8,1.3-0.6l21.2,7.3c0.5,0.2,0.8,0.8,0.6,1.3C179.3,121.2,178.9,121.5,178.5,121.5z"/>
					<path id="XMLID_192_" class="st11" d="M169.7,90.4l4,8.1c0.2,0.4,0.6,0.5,1,0.3l8.1-4c0.6-0.3,0.5-1.2-0.1-1.4l-12-4.1
						C170,89.1,169.4,89.8,169.7,90.4z"/>
					<path id="XMLID_191_" class="st11" d="M166.1,112.1l3.5-1.7c0.4-0.2,0.8,0,1,0.3l1.7,3.5c0.3,0.6-0.3,1.3-0.9,1l-5.1-1.8
						C165.6,113.2,165.5,112.4,166.1,112.1z"/>
					<circle id="XMLID_190_" class="st11" cx="171" cy="108" r="0.8"/>
					<circle id="XMLID_189_" class="st11" cx="172.1" cy="104.6" r="0.8"/>
					<circle id="XMLID_188_" class="st11" cx="173.3" cy="101.2" r="0.8"/>
					<path id="XMLID_187_" class="st12" d="M181.8,133.5l-0.8,2.3c-0.2,0.6-0.9,1-1.5,0.7l-18.5-6.4l-6.3-32l11.8-34.3
						c0.2-0.6,0.8-0.9,1.5-0.8L181.8,133.5z"/>
					<polygon id="XMLID_186_" class="st12" points="192.5,102.3 192.5,102.3 185.2,123.8 173.6,65.1 186.1,69.4 					"/>
				</g>
				<g id="XMLID_160_">
					<path id="XMLID_184_" class="st13" d="M201,135.3l2,20.2c0.1,1.1-0.7,2.1-1.8,2.2l-27.7,2.7c-1.1,0.1-2.1-0.7-2.2-1.8l-2-20.2
						c-0.1-1.1,0.7-2.1,1.8-2.2l27.7-2.7C200,133.4,200.9,134.2,201,135.3z"/>
					<path id="XMLID_183_" class="st14" d="M201.5,131.8l3.2,20c0.2,1.1-0.6,2.1-1.6,2.3l-27.4,4.4c-1.1,0.2-2.1-0.6-2.3-1.6
						l-3.2-20c-0.2-1.1,0.6-2.1,1.6-2.3l27.4-4.4C200.3,130,201.3,130.7,201.5,131.8z"/>
					<path id="XMLID_182_" class="st15" d="M201.5,131.8l0.7,4.4l-31.4,5.1l-0.7-4.4c-0.2-1.1,0.6-2.1,1.6-2.3l27.4-4.4
						C200.3,130,201.3,130.7,201.5,131.8z"/>
					
						<rect id="XMLID_181_" x="170.7" y="138.8" transform="matrix(0.9872 -0.1597 0.1597 0.9872 -19.8896 31.6001)" class="st16" width="31.8" height="1.5"/>
					<circle id="XMLID_180_" class="st17" cx="177.5" cy="136.1" r="2.4"/>
					<circle id="XMLID_179_" class="st17" cx="194.2" cy="133.4" r="2.4"/>
					<g id="XMLID_176_">
						<path id="XMLID_178_" class="st18" d="M177.5,137.8c-0.8,0-1.5-0.6-1.6-1.4l-0.6-3.5c-0.1-0.9,0.5-1.7,1.3-1.9
							c0.9-0.1,1.7,0.5,1.9,1.3l0.6,3.5c0.1,0.9-0.5,1.7-1.3,1.9C177.7,137.8,177.6,137.8,177.5,137.8z"/>
						<path id="XMLID_177_" class="st18" d="M194.2,135.1c-0.8,0-1.5-0.6-1.6-1.4l-0.6-3.5c-0.1-0.9,0.5-1.7,1.3-1.9
							c0.9-0.1,1.7,0.5,1.9,1.3l0.6,3.5c0.1,0.9-0.5,1.7-1.3,1.9C194.4,135.1,194.3,135.1,194.2,135.1z"/>
					</g>
					
						<rect id="XMLID_175_" x="175.3" y="144.4" transform="matrix(0.9871 -0.1598 0.1598 0.9871 -21.0178 30.1306)" class="st19" width="3.1" height="2.6"/>
					
						<rect id="XMLID_174_" x="196.4" y="141" transform="matrix(0.9872 -0.1598 0.1598 0.9872 -20.1972 33.446)" class="st19" width="3.1" height="2.6"/>
					
						<rect id="XMLID_173_" x="191.1" y="141.9" transform="matrix(0.9872 -0.1598 0.1598 0.9872 -20.4006 32.614)" class="st19" width="3.1" height="2.6"/>
					
						<rect id="XMLID_172_" x="185.8" y="142.7" transform="matrix(0.9872 -0.1598 0.1598 0.9872 -20.6045 31.7832)" class="st19" width="3.1" height="2.6"/>
					
						<rect id="XMLID_171_" x="180.5" y="143.6" transform="matrix(0.9872 -0.1598 0.1598 0.9872 -20.809 30.9532)" class="st19" width="3.1" height="2.6"/>
					
						<rect id="XMLID_170_" x="176" y="148.6" transform="matrix(0.9872 -0.1598 0.1598 0.9872 -21.6764 30.2844)" class="st19" width="3.1" height="2.6"/>
					
						<rect id="XMLID_169_" x="197" y="145.2" transform="matrix(0.9872 -0.1598 0.1598 0.9872 -20.8613 33.6089)" class="st19" width="3.1" height="2.6"/>
					
						<rect id="XMLID_168_" x="191.8" y="146.1" transform="matrix(0.9871 -0.1598 0.1598 0.9871 -21.0706 32.788)" class="st19" width="3.1" height="2.6"/>
					
						<rect id="XMLID_167_" x="186.5" y="146.9" transform="matrix(0.9872 -0.1598 0.1598 0.9872 -21.2686 31.9461)" class="st19" width="3.1" height="2.6"/>
					
						<rect id="XMLID_166_" x="181.2" y="147.8" transform="matrix(0.9872 -0.1598 0.1598 0.9872 -21.4731 31.1162)" class="st19" width="3.1" height="2.6"/>
					
						<rect id="XMLID_165_" x="176.6" y="152.9" transform="matrix(0.9872 -0.1598 0.1598 0.9872 -22.3411 30.4482)" class="st19" width="3.1" height="2.6"/>
					
						<rect id="XMLID_164_" x="197.7" y="149.4" transform="matrix(0.9872 -0.1598 0.1598 0.9872 -21.5248 33.7709)" class="st19" width="3.1" height="2.6"/>
					
						<rect id="XMLID_163_" x="192.4" y="150.3" transform="matrix(0.9872 -0.1598 0.1598 0.9872 -21.7293 32.941)" class="st19" width="3.1" height="2.6"/>
					
						<rect id="XMLID_162_" x="187.2" y="151.1" transform="matrix(0.9872 -0.1598 0.1598 0.9872 -21.9332 32.11)" class="st19" width="3.1" height="2.6"/>
					
						<rect id="XMLID_161_" x="181.9" y="152" transform="matrix(0.9872 -0.1598 0.1598 0.9872 -22.1366 31.2782)" class="st19" width="3.1" height="2.6"/>
				</g>
				<circle id="XMLID_159_" class="st20" cx="46.4" cy="121" r="6.3"/>
				<path id="XMLID_156_" class="st20" d="M74.9,85.4c-1.9,0-3.5-1.6-3.5-3.5c0-1.9,1.6-3.5,3.5-3.5c1.9,0,3.5,1.6,3.5,3.5
					C78.4,83.9,76.8,85.4,74.9,85.4z M74.9,80.3c-0.9,0-1.7,0.7-1.7,1.7c0,0.9,0.7,1.7,1.7,1.7c0.9,0,1.7-0.7,1.7-1.7
					C76.6,81.1,75.8,80.3,74.9,80.3z"/>
				<g id="XMLID_153_">
					<path id="XMLID_155_" class="st21" d="M51.5,85.9l-8.3,16.3c-0.5,0.9-0.1,2,0.8,2.5l31.4,16c0.9,0.5,2,0.1,2.5-0.8l8.3-16.3
						c0.2-0.5,0.3-1,0.1-1.5c-0.2-0.4-0.5-0.8-0.9-1L54,85.1c-0.4-0.2-0.9-0.2-1.3-0.1C52.2,85.1,51.8,85.5,51.5,85.9z"/>
					<path id="XMLID_154_" class="st22" d="M52.7,85l7.9,17.3c1.2,2.7,4.2,4.2,7.1,3.6l18.7-3.8c-0.2-0.4-0.5-0.8-0.9-1L54,85.1
						C53.6,84.9,53.1,84.9,52.7,85z"/>
				</g>
				<g id="XMLID_150_">
					<path id="XMLID_152_" class="st15" d="M73,74.6l5,11.8c0.3,0.7,1,1,1.7,0.7l22.6-9.6c0.7-0.3,1-1,0.7-1.7L98,64
						c-0.1-0.3-0.4-0.6-0.8-0.7c-0.3-0.1-0.6-0.1-0.9,0L73.7,73c-0.3,0.1-0.5,0.4-0.7,0.6C72.9,73.9,72.8,74.3,73,74.6z"/>
					<path id="XMLID_151_" class="st23" d="M73,73.6l12.8,3.6c2,0.6,4.1-0.4,5.1-2.2l6.3-11.7c-0.3-0.1-0.6-0.1-0.9,0L73.7,73
						C73.4,73.1,73.1,73.3,73,73.6z"/>
				</g>
				<path id="XMLID_149_" class="st24" d="M92.6,94.6h-1.2v1.2c0,0.5-0.4,1-1,1s-1-0.4-1-1v-1.2h-1.2c-0.5,0-1-0.4-1-1
					c0-0.5,0.4-1,1-1h1.2v-1.2c0-0.5,0.4-1,1-1s1,0.4,1,1v1.2h1.2c0.5,0,1,0.4,1,1C93.5,94.2,93.1,94.6,92.6,94.6z"/>
			</g>
			<path id="XMLID_145_" class="st0" d="M50.3,213c-8.7,0-15.8-7.1-15.8-15.8s7.1-15.8,15.8-15.8s15.8,7.1,15.8,15.8
				S59,213,50.3,213z M50.3,187.8c-5.2,0-9.5,4.2-9.5,9.5s4.2,9.5,9.5,9.5c5.2,0,9.5-4.2,9.5-9.5S55.5,187.8,50.3,187.8z"/>
		</g>
		<path id="XMLID_143_" class="st25" d="M46.2,167.4c-0.2,0-0.4-0.2-0.4-0.4c0-4.4,0.5-8.8,1.4-13.1c1.3-5.8,3.4-11.3,6.3-16.5
			c0.1-0.2,0.4-0.3,0.6-0.2c0.2,0.1,0.3,0.4,0.2,0.6c-2.9,5.1-5,10.6-6.2,16.3c-0.9,4.2-1.4,8.5-1.4,12.9
			C46.6,167.2,46.4,167.4,46.2,167.4z"/>
		<path id="XMLID_142_" class="st25" d="M48.2,182.6c-0.2,0-0.4-0.1-0.4-0.3c-0.5-1.7-0.8-3.5-1.1-5.2c0-0.2,0.1-0.5,0.4-0.5
			c0.2,0,0.5,0.1,0.5,0.4c0.3,1.7,0.7,3.5,1.1,5.2c0.1,0.2-0.1,0.5-0.3,0.5C48.3,182.6,48.2,182.6,48.2,182.6z"/>
		<g id="XMLID_133_">
			<circle id="XMLID_141_" class="st25" cx="106" cy="166.9" r="55.8"/>
			<path id="XMLID_140_" class="st24" d="M156.4,166.9c0,16.7-8.1,31.4-20.5,40.6c-3.7,2.7-7.8,5-12.2,6.6c-2,0.7-4,1.4-6.1,1.8
				c-3.7,0.9-7.6,1.3-11.6,1.3c-5.2,0-10.2-0.8-15-2.3c-20.5-6.4-35.4-25.5-35.4-48.1c0-7.9,1.8-15.3,5-21.9
				c3.9-8.1,10-15.1,17.5-20c1.8-1.2,3.6-2.2,5.5-3.2c4.1-2,8.5-3.5,13.1-4.4c3-0.6,6.1-0.8,9.3-0.8
				C133.8,116.5,156.4,139.1,156.4,166.9z"/>
			<path id="XMLID_139_" class="st4" d="M155.1,166.9c0,16.2-7.9,30.6-20,39.5c-3.6,2.7-7.6,4.8-11.9,6.4c-1.9,0.7-3.9,1.3-5.9,1.8
				c-3.6,0.9-7.4,1.3-11.3,1.3c-5.1,0-10-0.8-14.6-2.2c-20-6.2-34.5-24.8-34.5-46.9c0-7.7,1.8-14.9,4.9-21.4
				c3.8-7.9,9.7-14.7,17-19.5c1.7-1.1,3.5-2.2,5.3-3.1c4-2,8.3-3.4,12.8-4.3c2.9-0.5,5.9-0.8,9-0.8
				C133.1,117.9,155.1,139.8,155.1,166.9z"/>
			<path id="XMLID_138_" class="st16" d="M117.3,214.7c-3.6,0.9-7.4,1.3-11.3,1.3c-5.1,0-10-0.8-14.6-2.2l-29.6-68.2
				c3.8-7.9,9.7-14.7,17-19.5L117.3,214.7z"/>
			<path id="XMLID_137_" class="st16" d="M135.1,206.5c-3.6,2.7-7.6,4.8-11.9,6.4l-39-89.9c4-2,8.3-3.4,12.8-4.3L135.1,206.5z"/>
			<path id="XMLID_136_" class="st15" d="M106,169.5c-0.9,0-1.8-0.5-2.3-1.4c-0.7-1.3-0.2-2.8,1.1-3.5l26.3-13.8
				c1.3-0.7,2.8-0.2,3.5,1.1c0.7,1.3,0.2,2.8-1.1,3.5l-26.3,13.8C106.8,169.4,106.4,169.5,106,169.5z"/>
			<circle id="XMLID_135_" class="st21" cx="106" cy="166.9" r="10.1"/>
			<path id="XMLID_134_" class="st21" d="M106,169.5c-0.9,0-1.7-0.4-2.2-1.2L83,134.7c-0.8-1.2-0.4-2.8,0.8-3.6
				c1.2-0.8,2.8-0.4,3.6,0.8l20.8,33.6c0.8,1.2,0.4,2.8-0.8,3.6C106.9,169.4,106.5,169.5,106,169.5z"/>
		</g>
		<path id="XMLID_132_" class="st25" d="M161.8,166.9c0,18.4-8.9,34.8-22.7,44.9l-24.8-97.7c-0.2-0.8-0.3-1.6-0.3-2.4l0,0
			C141,115.6,161.8,138.8,161.8,166.9z"/>
		<path id="XMLID_131_" class="st26" d="M82.7,225.5h46.5c0.7,0,1.4-0.6,1.4-1.4l0,0c0-0.7-0.6-1.4-1.4-1.4H82.7
			c-0.7,0-1.4,0.6-1.4,1.4l0,0C81.4,224.8,82,225.5,82.7,225.5z"/>
	</g>
	<g id="XMLID_94_">
		<path id="XMLID_129_" class="st26" d="M148.2,227.5h24.7c0.7,0,1.4-0.6,1.4-1.4l0,0c0-0.7-0.6-1.4-1.4-1.4h-24.7
			c-0.7,0-1.4,0.6-1.4,1.4l0,0C146.8,226.9,147.4,227.5,148.2,227.5z"/>
		<g id="XMLID_95_">
			<g id="XMLID_126_">
				<polygon id="XMLID_128_" class="st27" points="156.3,221.7 155.2,214.6 158.4,213.6 158.9,221.2 				"/>
				<path id="XMLID_127_" class="st15" d="M159,220.4c0.2,0,0.4,0.1,0.6,0.2c1.1,0.9,4.6,2.6,6.4,2.9c1.9,0.3,2,1.2-0.7,1.2
					c-2.7,0-4.6-0.2-5.8-0.2c-1.2,0-0.9,0.2-3.8,0.2c-2.3,0-1.5-2.9-0.7-4.2c0.2-0.4,0.6-0.6,1.1-0.6L159,220.4z"/>
			</g>
			<g id="XMLID_123_">
				<polygon id="XMLID_125_" class="st27" points="146,215.1 150.4,209.4 153.3,211.1 148.1,216.6 				"/>
				<path id="XMLID_124_" class="st15" d="M148.8,216.2c0.1,0.2,0.2,0.4,0.2,0.6c0.1,1.5,1.2,5.3,2.5,6.5c1.4,1.2,0.5,1.6-1.7,0.5
					c-2.4-1.1-3-3.6-3.8-4.4c-0.8-0.9-0.8-0.5-2.7-2.7c-1.5-1.7,1.1-3.1,2.6-3.4c0.5-0.1,0.9,0,1.1,0.4L148.8,216.2z"/>
			</g>
			<g id="XMLID_105_">
				<g id="XMLID_120_">
					<path id="XMLID_122_" class="st28" d="M144,94.5c0,0-0.9,5.9,0.8,8.6c1.7,2.7,1.9,3.1,1.9,3.1"/>
					<path id="XMLID_121_" class="st29" d="M148.3,108.7c-0.5,0.3-1,0.4-1.6,0.4c-1,0-2-0.5-2.6-1.5c0,0-0.3-0.6-1.9-3
						c-1.1-1.8-1.5-4.1-1.5-6.2c-0.1-2.1,0.2-3.8,0.3-4.4c0.3-1.7,1.8-2.8,3.5-2.6c1.7,0.2,2.8,1.8,2.6,3.5
						c-0.1,0.9-0.2,1.9-0.2,2.9c0,1,0.1,1.9,0.2,2.6c0.1,0.4,0.2,0.8,0.3,1c1.7,2.8,2,3.2,2,3.2C150.2,106,149.7,107.9,148.3,108.7z
						"/>
				</g>
				<path id="XMLID_119_" class="st30" d="M137,142.3c0.6-8.7-2.3-30.4-3.8-39.1c-0.2-1.3,0.8-2.5,2.1-2.5h18c1,0,1.8,0.6,2.1,1.6
					c2.1,7.8,3.4,40,3.4,40H137z"/>
				<path id="XMLID_118_" class="st29" d="M166.7,124c-0.3-1.6-2.3-5.8-4.6-10.2c-2.4-4.7-5.1-9.5-6.3-11.8c-0.7-1.2-2.3-1.7-3.5-1
					c-1.2,0.7-1.7,2.3-1,3.5c1.9,3.4,3.9,7.1,5.5,10.3c1.9,3.7,3.8,6,4.6,7.8c-1.4,1.2-4.9,1.3-7.6,1.1c-0.8-0.1-3.7-0.3-5.6,1.5
					c-0.8,0.7-1.6,2-1.6,4c0.1,1.4,0.3,2,1.5,2.6c0.5,0.2,1.2,0.3,1.7,0.2c1.4-0.2,1.5-0.9,1.5-2.6c0-1.2,0.6-2.4,0.6-2.4
					c0,0,4.2,1,7.7,1.5c3.5,0.4,4.9-0.2,6.2-1.7C166.6,126.1,166.9,125.1,166.7,124z"/>
				<path id="XMLID_117_" class="st31" d="M138,156.4c0,0-2.6-4.8-0.9-14.1h21.7c0,0,0.3,7.1-0.2,14.1H138z"/>
				<path id="XMLID_116_" class="st28" d="M162.2,113.8l-2.5,0.5l-2.7,0.6c-1.7-3.3-3.6-6.9-5.5-10.3c-0.7-1.2-0.2-2.8,1-3.5
					c1.2-0.7,2.8-0.2,3.5,1C157.1,104.3,159.8,109.1,162.2,113.8z"/>
				<path id="XMLID_115_" class="st29" d="M137.7,102.7c-0.3-1.4-1.7-2.2-3.1-1.9c-6.2,1.5-10.5,2.9-13.5,4.2
					c-6.9,2.9-6.9,5.1-6.8,6.2c0,1.3,0.3,3.7,15.2,9.1c0,0.4-0.5,2.1-0.8,2.7c-0.7,1.3,0,2.5,0.8,3.7c0.3,0.4,0.8,0.9,1.6,0.9
					c0.9,0,2.1-1.2,2.2-2.1c0.6-3.5,0.5-5.5,0.3-5.9c0,0,0,0,0,0c0,0,0,0,0,0c0,0,0-0.1-0.1-0.1c-0.1-0.1-0.1-0.2-0.2-0.3
					c0-0.1-0.1-0.1-0.1-0.2c-0.1-0.1-0.1-0.1-0.2-0.2c-0.1-0.1-0.2-0.2-0.3-0.3c0,0,0,0-0.1,0c-0.2-0.1-0.4-0.2-0.6-0.3
					c-5-2.1-9.8-5.4-11.8-6.9c0.7-0.4,1.8-0.9,3-1.4c3.2-1.3,7.9-2.8,12.7-3.9C137.2,105.5,138.1,104.1,137.7,102.7z"/>
				<path id="XMLID_114_" class="st30" d="M162.6,112.7l-3.5,0.7l-2.7,0.5h0l-2.3,0.4c-3-5.8-3.7-7.1-3.8-9.1
					c-0.1-2.2,0.5-3.4,1.9-4.2c1.5-0.8,3.3-0.3,4.1,1.2C156.4,102.3,159.6,106.8,162.6,112.7z"/>
				<path id="XMLID_113_" class="st31" d="M172,185.1c-0.3,2.1-1.5,4.4-3.1,7.2c-2.7,4.7-6.8,9.9-10.6,14.3c-2.6,3-5,5.7-6.5,7.5
					c-0.7,0.8-1.2,1.4-1.5,1.8l-3.1-4c1.1-1.6,2.2-3.8,3.5-5.8c0-0.1,0.1-0.1,0.1-0.2c2.5-3.8,5.1-8,7.3-11.9
					c0.1-0.1,0.2-0.3,0.2-0.4c2.3-4.1,3.9-7.7,4.3-9.8c0.6-3.8-5.1-15.6-10.7-26c-0.6-1.2-1.3-2.4-1.9-3.5c-0.2-0.4-0.3-0.8-0.4-1.3
					c-0.2-1.9,1.2-4.1,2.9-5.1c2.1-1.2,4.8-1.7,6,0.3C161.1,152.7,173.4,175.8,172,185.1z"/>
				<path id="XMLID_112_" class="st32" d="M158.4,206.6c-2.6,3-5,5.7-6.5,7.5c-0.2-2.1-0.5-4.4-0.8-6.8c-0.1-0.4-0.1-0.9-0.1-1.4
					c2.5-3.8,5.1-8,7.3-11.9C158.4,197.9,158.4,202.3,158.4,206.6z"/>
				<path id="XMLID_111_" class="st31" d="M157.8,186.2c-1.1-8.7-8.3-32-9.5-34.5c-1-2.2-6.2-2.7-8.4-1.7c-2.2,1-3.2,3.5-2.2,5.7
					c2.9,6.7,11.2,24.5,12.1,30.8c0.5,3.8,1.1,11.3,2.3,17.8c0.8,4.5,1.7,8.9,2.3,12.1c0.5,2.8,0.5,2.3,0.6,2.5l5.2-0.8
					C160.1,218.1,159,196.4,157.8,186.2z"/>
				<path id="XMLID_110_" class="st28" d="M135.8,105.8c-4.8,1.2-9.5,2.7-12.7,3.9l-2.1-4.8c3-1.3,7.3-2.7,13.5-4.2
					c1.4-0.3,2.8,0.5,3.1,1.9C138.1,104.1,137.2,105.5,135.8,105.8z"/>
				<path id="XMLID_109_" class="st30" d="M134.7,100.7c1.7-0.2,2.8,0.5,3.3,2.1c0.4,1.6-0.7,2.9-2.1,3.7c-1.8,1-2.4,1.2-9.8,3.8
					l-4.1-5.7C131.4,101,131.9,101.1,134.7,100.7z"/>
				<path id="XMLID_108_" class="st28" d="M147,100.4c-0.1,0-0.3,0-0.4,0c-2.2,0-4.3-0.7-5.9-2c-0.1-2.1,0.2-3.8,0.3-4.4
					c0.3-1.7,1.8-2.8,3.5-2.6c1.7,0.2,2.8,1.8,2.6,3.5c-0.1,0.9-0.2,1.9-0.2,2.9C146.8,98.8,146.9,99.7,147,100.4z"/>
				<path id="XMLID_107_" class="st29" d="M155.7,89.6c-1.2,5.6-4.3,9.7-9.7,9.7c-5.3,0-8.7-4-9.7-9.7c-0.9-5.3,4.4-10.4,9.7-10.4
					C151.3,79.1,156.8,84.4,155.7,89.6z"/>
				<path id="XMLID_106_" class="st33" d="M156.4,218.9l0-0.2c-1.5-9.1-3.7-22.8-4.8-31.4c-0.8-6.3-8.6-24.9-11.5-31.6
					c0,0,0-0.1-0.1-0.1c0,0,0-0.1,0-0.1c-0.5-1.3-1.9-6.1-0.5-13.5l0.4,0.1c-1.4,7.4,0.1,12,0.5,13.3c0,0,0,0.1,0,0.1
					c0,0,0,0.1,0,0.1c2.9,6.7,10.7,25.4,11.5,31.7c1.1,8.6,3.3,22.3,4.8,31.4l0,0.2L156.4,218.9z"/>
			</g>
			<path id="XMLID_104_" class="st34" d="M149.4,100.7c0,1.3-0.5,3.5-3.9,3.5c-2.5,0-5.6-1.1-6.8-3.1l-0.3-0.4H149.4z"/>
			<path id="XMLID_103_" class="st29" d="M139.4,100.7c0.9,1.6,3.7,2.6,6,2.6c2.4,0,3.1-1.2,3.1-2.6H139.4z"/>
			<g id="XMLID_100_">
				<path id="XMLID_102_" class="st35" d="M152.5,127.7c0,0,0.1-1.5-1.4-3.6l1.4-0.8c1.8,2.7,1.6,4.6,1.6,4.7L152.5,127.7z"/>
				<path id="XMLID_101_" class="st36" d="M151.3,123.3c0.8-0.4,1.9-0.2,2.4,0.4c0.5,0.6,0.3,1.4-0.5,1.8c-0.8,0.4-1.9,0.2-2.4-0.4
					C150.3,124.4,150.5,123.6,151.3,123.3z"/>
			</g>
			<path id="XMLID_99_" class="st37" d="M155.4,82.4c-2.9-4.7-10.1-5.1-11.5-5c-0.7,0-2.3,0.5-3,1.6c0-0.8,0-1.5,0-1.5
				c-0.6,0.8-0.7,1.4-0.6,1.9c-0.4-0.6-0.7-1.2-0.7-1.2c-0.1,0.8,0.1,1.3,0.4,1.5c-2,0.5-4.5,3.2-3.6,9c0.4,2.5,6,0.6,7.6-1.9
				c1.1,1.7,3.2,2.1,3.2,2.1c-0.7-0.7-1.4-1.8-1.9-2.9c3,1.8,7,3.8,7.4,5c0,0,0.9-2,0.2-3.2c0,0,2.4,0.6,2.7,3
				C155.5,90.7,158.5,87.4,155.4,82.4z"/>
			
				<rect id="XMLID_98_" x="142" y="149.2" transform="matrix(0.1595 0.9872 -0.9872 0.1595 273.0241 -21.916)" class="st33" width="14.9" height="0.4"/>
			<path id="XMLID_97_" class="st33" d="M150.1,154l-0.1-0.4c0,0,0.9-0.2,1.4-0.8c0.3-0.4,0.4-0.9,0.3-1.5l-1.5-9.3l0.4-0.1l1.5,9.3
				c0.1,0.7,0,1.3-0.4,1.8C151.2,153.8,150.2,154,150.1,154z"/>
			<path id="XMLID_96_" class="st29" d="M135.9,89c-0.4,0.9-0.4,2,0,2.9c0.5,1,2,1,2.4-0.1l1.3-2.8c0.5-1-0.5-2.2-1.6-1.9
				C137.2,87.4,136.4,88.1,135.9,89z"/>
		</g>
	</g>
</g>
</svg>
