<?xml version="1.0" encoding="utf-8"?>
<!-- Generator: Adobe Illustrator 19.0.0, SVG Export Plug-In . SVG Version: 6.00 Build 0)  -->
<svg version="1.1" xmlns="http://www.w3.org/2000/svg" xmlns:xlink="http://www.w3.org/1999/xlink" x="0px" y="0px"
	 viewBox="0 0 1012.2 640" style="enable-background:new 0 0 1012.2 640;" xml:space="preserve">
<style type="text/css">
	.Blue_x0020_Neon{fill:none;stroke:#92A9D6;stroke-width:7;stroke-linecap:round;stroke-linejoin:round;}
	.Chrome_x0020_Highlight{fill:url(#SVGID_1_);stroke:#FFFFFF;stroke-width:0.3629;stroke-miterlimit:1;}
	.Jive_GS{fill:#F5DB34;}
	.Alyssa_GS{fill:#B1CEE1;}
	.st0{opacity:0.48;}
	.st1{fill:#8CABEF;}
	.st2{fill:#EFBFA5;}
	.st3{fill:#353A85;}
	.st4{fill:#292949;}
	.st5{fill:#BABCBE;}
	.st6{fill:#D67086;}
	.st7{fill:#5D66D3;}
	.st8{fill:#EED5D5;}
	.st9{fill:#9EB79C;}
	.st10{fill:#B0C0BA;}
	.st11{fill:#3B3387;}
	.st12{fill:#DDDAE8;}
	.st13{fill:#474EBB;}
	.st14{opacity:0.13;}
	.st15{clip-path:url(#SVGID_3_);fill:#000100;}
	.st16{opacity:0.64;}
	.st17{clip-path:url(#SVGID_5_);fill:#5D66D3;}
	.st18{opacity:0.11;}
	.st19{clip-path:url(#SVGID_7_);fill:#000100;}
	.st20{fill:#FFFFFF;}
	.st21{fill:#DFD8C7;}
	.st22{fill:#C1BBAC;}
	.st23{fill:#CBC4B5;}
	.st24{fill:#F4F4F4;}
	.st25{opacity:5.000300e-002;}
	.st26{clip-path:url(#SVGID_9_);fill:#272525;}
	.st27{clip-path:url(#SVGID_11_);fill:#272525;}
	.st28{opacity:8.000200e-002;}
	.st29{clip-path:url(#SVGID_13_);fill:#272525;}
	.st30{fill:#B97262;}
	.st31{opacity:0.1;}
	.st32{clip-path:url(#SVGID_15_);fill:#272525;}
	.st33{opacity:0.2;}
	.st34{clip-path:url(#SVGID_17_);fill:#272525;}
	.st35{clip-path:url(#SVGID_19_);fill:#272525;}
	.st36{enable-background:new    ;}
	.st37{fill:#007CD4;}
	.st38{opacity:0.6;fill:#8CABEF;}
</style>
<linearGradient id="SVGID_1_" gradientUnits="userSpaceOnUse" x1="-36.913" y1="-481.2609" x2="-36.913" y2="-482.2609">
	<stop  offset="0" style="stop-color:#656565"/>
	<stop  offset="0.618" style="stop-color:#212121"/>
	<stop  offset="0.6292" style="stop-color:#555555"/>
	<stop  offset="0.9831" style="stop-color:#404040"/>
</linearGradient>
<g id="background">
</g>
<g id="Shadow">
	<g class="st0">
		<path class="st1" d="M478.1,523.9c-28.2,0.1-56.4,0.8-84.5,3.9c-10.6,1.2-21,3.8-31.6,4.8c-21.2,2.1-42.1,6-63.4,7.8
			c-17.2,1.4-34.4,2.3-51.5,4.1c-16,1.7-33.8,1.3-49.7-1.5c-11.8-2.1-23.6-3.3-35.2-6.7c-13-3.8-27.1-6.5-40.6-6.4
			c-19.3,0.1-38,0.2-56.5,6.8c-6.5,2.3-14.4,6.2-19.3,11.1c-11.3,11.3-12.8,39.4-1.5,51.1c18.9,19.7,59.3,27.4,85.8,27.8
			c29.1,0.4,57.3-1.8,86.4-3c27-1.2,54-2.9,81.1-2.8c55.3,0.1,110.7,0,165.9-3.7c51.9-3.5,103.9-2.3,155.9-2.3
			c53.3,0,106.3,0.4,159.2,7.5c23.1,3.1,46.6,4.2,69.8,6.3c20.8,1.9,40.7,0,61.4-1.8c17.4-1.5,34.6-6,50.4-13.5
			c12.5-6,34.7-24.5,38.6-38.8c10.7-39.9-151.3-39-176.2-38.9c-27.8,0.1-55.9,1-83.7,0c-11.7-0.4-23.2-2.7-34.6-5.2
			c-11.4-2.5-22.8-1.9-34.4-2.9c-48.1-4.4-96.3-3.7-144.5-3.7C509.5,523.9,493.8,523.8,478.1,523.9z"/>
	</g>
</g>
<g id="object">
	<g>
		<path class="st2" d="M68,234.6c2.4-1.4,6-1.8,8.9-3.4c1.5-0.8,1.4-4.1,4.5-2.6c1.1,0.6,3.1,2.2,5.2,3.3c3.2,1.5,7.8,1.8,11.8,1.3
			c15.8-2,31.6-3.8,47.6-4c0.9,0,1.8,0,2.6-0.5c1.4-0.8,1.8-2.4,2.2-3.9c2.2-7,4.7-13.8,8.2-20.2c3.2-5.8,6.8-11.2,12.2-15
			c5.4-3.8,12.3-5.3,18.3-2.8c4.5,1.9,8.1,5.5,8.6,10.4c1.3,12.2-10.5,20.3-17.9,28.1c-7,7.4-12.9,13.7-20.1,20.4
			c-0.9,0.8-1.7,1.6-2.9,2c-1.2,0.4-2.5,0.3-3.7,0.2c-15.9-1.6-31.3-3.6-47.1-1.7c-4.3,0.5-8.2-0.7-12.3,0.3
			c-2.6,0.6-4.2,3.1-6.7,4.1c-2.5,1-5.4,2-8,1.9c-5.9-0.1-12.1-5.6-13.5-11.3C65,237.7,66,235.8,68,234.6"/>
		<path class="st3" d="M180.5,221.1c-8.6-4.2-17.8-7.1-26.2-11.9c3.8-7.3,15.7-37.4,17.6-40.9c7.2-13.6,8.9-19.6,17.9-26.3
			c19.1-14.4,39.1-2,36.3,20.5c-3.1,24.4-18.1,44.3-34,62c-0.3,0.4-0.8,0.7-1.4,0.8c-0.6,0.2-1.4-0.1-2-0.4
			C186.1,223.6,183.2,222.4,180.5,221.1"/>
		<path class="st2" d="M174.9,560.7c-3.1,0.1-6.2-0.6-9.2-0.9c-1.6-30.6,1.3-62.6,2.6-93.3c7.9,0.4,15.7,0.8,23.6,1.3
			c-5.5,16.4-9.4,33.4-11.7,50.5C179.7,520.9,175.3,560.6,174.9,560.7"/>
		<path class="st4" d="M164.7,553.8c-1.9-0.3-3.1,0.5-4.4,1.7c-0.8,0.7-1.3,1.7-2.2,2.1c-0.9,0.5-1.8,0.6-2.9,0.7
			c-5.7,0.6-18.7,0.3-11.8,9.8c6.3,8.6,23.1,5.2,32.8,2.8c0.6-0.2,1.3-0.2,1.8-0.7c0.5-0.5,0.8-1.2,1-1.9c1.1-4,2.6-9.1-2.4-10.8
			c-2.1-0.7-4.1,0.7-6.3-0.1C168.5,556.8,166.6,554.2,164.7,553.8"/>
		<path class="st4" d="M150.6,484.9c16-0.3,32-0.6,48.1-0.9c13-61.7,24.4-123.7,34.2-185.9c0.8-4.8,1.5-9.8,0.1-14.5
			c-2.6-8.9-12.1-13.9-21.2-15.6c-14.1-2.6-40.1,1-47.3,15.7c-7.7,15.5-6.4,43.2-8.2,60.4C151.2,390.7,149.3,437.8,150.6,484.9"/>
		<path class="st2" d="M266.5,560.7c3.1,0.1,6.2-0.6,9.2-0.9c1.6-30.6-1.3-62.6-2.6-93.3c-7.9,0.4-15.7,0.8-23.6,1.3
			c5.5,16.4,9.4,33.4,11.7,50.5C261.6,520.9,266,560.6,266.5,560.7"/>
		<path class="st4" d="M276.7,553.8c1.9-0.3,3.1,0.5,4.4,1.7c0.8,0.7,1.3,1.7,2.2,2.1c0.9,0.5,1.8,0.6,2.9,0.7
			c5.7,0.6,18.7,0.3,11.8,9.8c-6.3,8.6-23.1,5.2-32.8,2.8c-0.6-0.2-1.3-0.2-1.8-0.7c-0.5-0.5-0.8-1.2-1-1.9c-1.1-4-2.6-9.1,2.4-10.8
			c2.1-0.7,4.1,0.7,6.3-0.1C272.8,556.8,274.7,554.2,276.7,553.8"/>
		<path class="st4" d="M290.8,484.9c-16-0.3-32-0.6-48.1-0.9c-13-61.7-24.4-123.7-34.2-185.9c-0.8-4.8-1.5-9.8-0.1-14.5
			c2.6-8.9,12.1-13.9,21.2-15.6c14.1-2.6,40.1,1,47.3,15.7c7.7,15.5,6.4,43.2,8.2,60.4C290.2,390.7,292.1,437.8,290.8,484.9"/>
		<path class="st3" d="M249.7,146.7c12.8,12.2,22.5,27.9,28.3,44.2c10.3,28.8,10.5,59.5,10.6,89.7c0,10,0.1,20.1,0.1,30.1
			c0,9.9-0.8,12-11.6,10.7c-19.9-2.4-40.5-6.5-58.5-15.3c-8.6-4.2-16.6-9.5-25.6-12.8c-13.1-4.8-26.5-2.6-39.4-5.8
			c5.6-17,9.6-31.4,12.5-48.9c3-18,5.7-37.6,10-55.4c2.6-10.7,7.5-20.6,12.4-30.4c3.3-6.6,6.8-13.3,12.5-18.1
			C217.9,120.3,236.9,134.5,249.7,146.7"/>
		<path class="st2" d="M203.4,104.4c2.4,5.3,6.4,9.7,9.6,14.6c3.1,4.7,4.3,9,5.1,14.5c0.6,3.9,2,7,6.8,7.7c9,1.3,6.4-6.1,8.4-11.5
			c2.3-6.2,7.3-11,10.8-16.5c10-15.9,7.2-47.3-13.7-54C207.6,51.7,196,88.3,203.4,104.4"/>
		<path class="st4" d="M239.7,89c2.6,0.1,5.4,0.3,7.4,2c1.9,1.7,1.7,5.5-0.8,5.9c-2.3,0.4-5.3-2-6.7-0.3c-0.8,1-0.1,2.5,0.5,3.7
			c2.4,4.6,3.1,9.9,2,14.8c0.9,0.9,2.4,0,3.3-0.9c4.1-4.5,7.3-9.8,9.5-15.5c0.8,1.4,2,2.6,3.5,3.4c-0.9-2.1-0.3-4.5,0.2-6.7
			c1.9-8,3.3-17.5-2.3-24c-3-3.5-7.6-5.5-12.2-6.4c-4.6-0.9-9.3-0.6-13.9-0.4c-2,0.1-4.4,0.5-4.9,2.4c4.3,1.7,8.8,5.1,11,9.3
			C236.8,77.5,239.5,89,239.7,89"/>
		<path class="st4" d="M230.5,69.7c0.2,0.1,0.3,0.2,0.5,0.3c2,1.5,3.8,3.3,6.2,4c3.4,1,7.1-0.7,10.5,0.5c3.8,1.3,6.3,5.8,9,8.5
			c4.5,4.4,10.1,7.6,16.2,9.5c3.1,0.9,6.3,1.5,9.5,1.7c1.5,0.1,3.4,0.4,4.8,0c1.9-0.5,1.8-1.4-0.2-2c-6.4-2-8.4-11-7.9-16.9
			c0.4-4.7,2-9.6,0.2-13.9c-1.4-3.3-4.3-5-7.1-6.9c-3.1-2.1-6.5-1.5-10-2.5c-3.7-1-6.7-4-10.5-4.7c-4-0.8-8,1-11.9,1.8
			c-3.3,0.6-6.7,0.6-10-0.1c-2.9-0.6-5.8-1.8-8.8-1.8c-4.4,0-8.5,2.8-11.1,6.4c-3.7,5.1-6,13.8-4.7,20.5c-0.2-1,3.3-4.8,4-5.6
			c1.5-1.7,3.4-3.3,5.7-3.6C220.1,64,226.3,66.6,230.5,69.7"/>
		<path class="st5" d="M56,275.8c0,0,4.9,23.3,1.6,33.8l8.9,0.1l-2.9-37.4L56,275.8z"/>
		<path class="st5" d="M66.1,305.7c-2.5,0.4-5,0.7-7.5,0.9c-0.4,0-0.3,0.7,0.1,0.7c2.5-0.2,5-0.5,7.5-0.9
			C66.6,306.3,66.5,305.6,66.1,305.7"/>
		<path class="st5" d="M65.7,302.1c-2.1,0.3-4.3,0.6-6.7,0.9c-0.4,0.1-0.3,0.7,0.1,0.7c2.2-0.3,4.5-0.6,6.7-0.9
			C66.2,302.8,66.1,302.1,65.7,302.1"/>
		<path class="st5" d="M65.3,299.1c-1.7,0.5-2.7,0.8-6.4,0.7c-0.4,0-0.3,0.7,0.1,0.7c2.2,0,4.3-0.3,6.4-0.7
			C65.8,299.7,65.7,299,65.3,299.1"/>
		<path class="st5" d="M65.5,294.8c-2.2,0.5-4.3,0.9-6.5,1.1c-0.4,0-0.3,0.7,0.1,0.7c2.2-0.2,4.4-0.6,6.5-1.1
			C66,295.4,65.9,294.7,65.5,294.8"/>
		<path class="st5" d="M64.9,291c-2.1,0.3-4.3,0.6-6.4,0.8c-0.4,0-0.3,0.7,0.1,0.7c2.1-0.2,4.3-0.4,6.4-0.8
			C65.4,291.6,65.3,291,64.9,291"/>
		<path class="st5" d="M64.3,287.3c-2.1,0.4-4.1,0.7-6.2,0.9c-0.4,0-0.3,0.7,0.1,0.7c2.1-0.2,4.2-0.5,6.2-0.9
			C64.8,287.8,64.7,287.2,64.3,287.3"/>
		<path class="st5" d="M64,282.9c-2.2,0.5-4.4,0.9-6.7,1.1c-0.1,0-0.1,0-0.2,0.1c0,0,0,0.1,0,0.1c0,0.2,0.1,0.3,0.1,0.5
			c0,0,0.1,0,0.1,0c2.2-0.3,4.5-0.7,6.7-1.1C64.4,283.5,64.4,282.9,64,282.9"/>
		<path class="st5" d="M63.8,278.6c-2.2,0.3-4.4,0.6-6.6,1c-0.4,0.1-0.3,0.7,0.1,0.7c2.2-0.3,4.4-0.6,6.6-1
			C64.3,279.2,64.2,278.6,63.8,278.6"/>
		<path class="st6" d="M213.1,345.4L53.8,358.8c-0.2,0-0.4-0.1-0.4-0.3l-2.3-26.6c0-0.2,0.1-0.4,0.3-0.4l159.3-13.3
			c0.2,0,0.4,0.1,0.4,0.3l2.3,26.6C213.5,345.2,213.3,345.4,213.1,345.4"/>
		<polygon class="st4" points="81.9,356.4 65.2,357.8 62.8,330.5 79.6,329.1 		"/>
		<polygon class="st4" points="89.5,355.8 85.8,356.1 83.4,328.7 87.2,328.4 		"/>
		<path class="st4" d="M102.5,340.9c0.2,2.7-1.7,5-4.3,5.2s-4.9-1.8-5.2-4.4c-0.2-2.7,1.7-5,4.3-5.2S102.2,338.2,102.5,340.9"/>
		<path class="st7" d="M212.1,318.3L52.9,331.6c-0.2,0-0.4-0.1-0.4-0.3l-1.8-21.3c0-0.2,0.1-0.4,0.3-0.4l159.3-13.3
			c0.2,0,0.4,0.1,0.4,0.3l1.8,21.3C212.5,318.1,212.3,318.2,212.1,318.3"/>
		<polygon class="st8" points="71.5,314.1 72.3,323.7 77,319 		"/>
		<polygon class="st8" points="78,314.5 78.6,322.2 82.4,318.4 		"/>
		
			<rect x="60.2" y="308.8" transform="matrix(0.9965 -8.328472e-002 8.328472e-002 0.9965 -26.428 6.1543)" class="st8" width="0.7" height="22.1"/>
		
			<rect x="63.6" y="308.5" transform="matrix(0.9965 -8.318231e-002 8.318231e-002 0.9965 -26.3603 6.4273)" class="st8" width="0.7" height="22.1"/>
		<path class="st8" d="M92.7,63.3l-11.3,4.2l0.2-2.7c0.5-8.2-1-18.1-3.3-26l0.5-0.5l10.4-9L92.7,63.3z"/>
		<polygon class="st9" points="157.5,58.9 91.8,61.8 81.1,67.4 152.4,64.4 		"/>
		<path class="st10" d="M80.9,66.6c1.9-0.5,3.7-1.8,5.5-2.8c1.7-0.9,3.4-1.9,5.1-2.8c0.3-0.1,0.5,0.7,0.2,0.9c-1.8,1-3.7,2-5.5,3
			c-1.7,1-3.4,2.1-5.2,2.6C80.7,67.6,80.6,66.7,80.9,66.6"/>
		<path class="st10" d="M89.1,30.5c-3.8,2.5-7.5,5.5-11,9.2c-0.4,0.4-0.8-0.8-0.5-1.2c3.6-3.7,7.3-6.8,11.2-9.3
			C89.2,28.9,89.5,30.3,89.1,30.5"/>
		<path class="st1" d="M154.8,26.7l-66.3,2.6l1,7.3c0.8,5.9,1.4,11.8,1.8,17.7l0.4,7.4l65.8-2.9l0-0.4
			C158.1,48.1,157.2,37,154.8,26.7"/>
		<path class="st7" d="M98.5,29.7c-0.2-0.9-1.6-0.8-1.4,0.2c2,9.8,2.8,19.7,2.1,29.7c-0.1,0.9,1.4,1.2,1.4,0.2
			C101.3,49.7,100.6,39.6,98.5,29.7"/>
		<path class="st7" d="M146.9,28.1c-0.2-0.9-1.6-0.7-1.4,0.2c2.1,9.8,2.9,19.7,2.4,29.7c-0.1,0.9,1.4,1.2,1.4,0.2
			C149.9,48.1,149.1,38,146.9,28.1"/>
		<path class="st2" d="M61.1,107l-25.4,6.5l0.5-3.7c1.6-11.1-0.8-24.3-5.5-34.8l1.1-0.7l23.7-12.9L61.1,107z"/>
		<polygon class="st4" points="205.1,96.3 59.1,105.1 35.1,113.4 193.2,104.1 		"/>
		<path class="st3" d="M34.7,112.4c4.3-0.8,8.4-2.7,12.5-4.2c3.8-1.4,7.7-2.8,11.5-4.2c0.6-0.2,1,1,0.4,1.2c-4.1,1.5-8.3,3-12.4,4.5
			c-3.9,1.4-7.7,3.1-11.8,3.9C34.2,113.8,34.1,112.5,34.7,112.4"/>
		<path class="st3" d="M55.4,63.2c-8.6,3.6-17,8-25.1,13.1c-0.8,0.5-1.8-1.1-1-1.6c8.2-5.2,16.7-9.7,25.5-13.3
			C55.7,61,56.3,62.8,55.4,63.2"/>
		<path class="st11" d="M201.4,53.2L54.3,61.6l1.7,9.8c1.4,7.9,2.3,15.8,2.7,23.8l0.4,10l146-8.7l0.1-0.6
			C207.1,81.7,205.8,66.9,201.4,53.2z"/>
		<path class="st12" d="M199.1,296.9L64.3,308.2l-2.7-32.4l134.8-11.3l0.2,0.4C200.4,275.1,201.3,286.2,199.1,296.9"/>
		<polygon class="st3" points="96.9,305.5 78.1,307 75.3,274.7 94.2,273.1 		"/>
		<path class="st2" d="M59.1,241.5l-25.3-1.6l1.2,2.8c3.5,8.4,3.5,18.9,0.8,27.5l1.1,0.4l24.6,6.9L59.1,241.5z"/>
		<polygon class="st4" points="205.2,229.7 57.5,243.3 33.3,240.1 191.5,225.1 		"/>
		<path class="st3" d="M33.1,240.9c4.2,0.1,8.4,0.9,12.5,1.5c3.9,0.6,7.8,1.1,11.7,1.7c0.6,0.1,0.8-0.9,0.2-1
			c-4.2-0.6-8.4-1.2-12.6-1.8C40.9,240.8,37,240,33,240C32.4,239.9,32.5,240.9,33.1,240.9"/>
		<path class="st3" d="M61.2,276.2c-8.8-1.7-17.5-4-26-6.9c-0.9-0.3-1.5,1-0.6,1.3c8.6,3,17.4,5.3,26.3,7.1
			C61.9,277.9,62.1,276.4,61.2,276.2"/>
		<path class="st13" d="M208.2,265.2L60.4,277.6l0-7.7c0-6.3-0.5-12.5-1.5-18.7l-1.4-7.8l147.7-13.6l0.2,0.5
			C209.7,241.4,210.7,253.5,208.2,265.2"/>
		<path class="st1" d="M190.7,228.7l-140,11.7c-0.2,0-0.4-0.1-0.4-0.3l-2.8-32.8c0-0.2,0.1-0.4,0.3-0.4l140-11.7
			c0.2,0,0.4,0.1,0.4,0.3l2.8,32.8C191,228.5,190.9,228.7,190.7,228.7"/>
		<path class="st7" d="M205.2,169.8L32.1,184.3c-0.2,0-0.4-0.1-0.4-0.3l-2-23.7c0-0.2,0.1-0.4,0.3-0.4l173.1-14.5
			c0.2,0,0.4,0.1,0.4,0.3l2,23.7C205.5,169.6,205.4,169.7,205.2,169.8"/>
		<path class="st6" d="M175.4,148.1L65,157.3l-4.1-48.4l110.4-9.2l0.6,2.7c3.3,14.1,4.6,28.6,3.6,43L175.4,148.1z"/>
		<polygon class="st8" points="99.1,154.1 77.2,156 73.2,108.2 95.1,106.4 		"/>
		<polygon class="st6" points="94.2,154.5 81.9,155.6 77.9,107.9 90.2,106.8 		"/>
		<g class="st14">
			<g>
				<defs>
					<rect id="SVGID_2_" x="60.9" y="100" width="113" height="12.3"/>
				</defs>
				<clipPath id="SVGID_3_">
					<use xlink:href="#SVGID_2_"  style="overflow:visible;"/>
				</clipPath>
				<polygon class="st15" points="60.9,109.2 171.3,100 173.9,112.3 61.1,111.8 				"/>
			</g>
		</g>
		<g class="st16">
			<g>
				<defs>
					<rect id="SVGID_4_" x="103.2" y="36.1" width="15" height="15.3"/>
				</defs>
				<clipPath id="SVGID_5_">
					<use xlink:href="#SVGID_4_"  style="overflow:visible;"/>
				</clipPath>
				<path class="st17" d="M118.2,43.1c0.4,4.2-2.7,7.9-6.8,8.3c-4.1,0.3-7.8-2.8-8.1-7c-0.4-4.2,2.7-7.9,6.8-8.3
					C114.2,35.7,117.8,38.9,118.2,43.1"/>
			</g>
		</g>
		<path class="st12" d="M48,170.3c-1.6-1.8-3.5-3.2-5.6-4.4c-0.8-0.5-1.4,0.9-0.6,1.3c1.8,1,3.3,2.3,4.7,3.7c-1.3,1.8-2.6,3.4-4.1,5
			c-0.7,0.7,0.5,1.6,1.1,1c1.7-1.7,3.2-3.6,4.5-5.6C48.3,171,48.3,170.7,48,170.3"/>
		<path class="st12" d="M56.4,169.3c-1.1-1.4-3.1-2.6-4.5-3.8c-0.7-0.6-1.7,0.5-0.9,1.1c1.2,1,2.9,2,3.9,3.1c-0.5,0.7-1.4,1.4-1.9,2
			c-0.7,0.8-1.4,1.6-2.1,2.4c-0.6,0.7,0.5,1.7,1.1,1c0.9-1,1.7-1.9,2.6-2.9c0.6-0.7,1.5-1.4,1.9-2.3
			C56.5,169.8,56.5,169.5,56.4,169.3"/>
		<path class="st12" d="M60.4,163.3c-0.7-0.6-1.7,0.5-0.9,1.1c0.4,0.4,1.3,1.7,0.4,2c-0.9,0.3-0.4,1.6,0.5,1.4
			c0.9-0.3,1.4-1.1,1.3-2.1C61.7,164.7,61.1,163.9,60.4,163.3"/>
		<path class="st12" d="M68.8,166.3c-0.2-0.3-0.5-0.3-0.8-0.2c-1.3-0.5-2.8-0.2-3.6,1c-0.8,1.1-0.5,2.8,0.5,3.7
			c1.1,1,2.8,0.9,3.8-0.1C69.9,169.6,69.9,167.6,68.8,166.3 M67.8,169.6c-0.5,0.6-1.4,0.7-1.9,0.1c-1.1-1.2,0.2-2.9,1.6-2.2
			c0.1,0.1,0.3,0.1,0.4,0.1C68.2,168.2,68.3,169,67.8,169.6"/>
		
			<rect x="169" y="196.6" transform="matrix(0.9965 -8.367771e-002 8.367771e-002 0.9965 -17.2733 14.9592)" class="st12" width="1.7" height="33.8"/>
		
			<rect x="175.7" y="196.1" transform="matrix(0.9965 -8.373725e-002 8.373725e-002 0.9965 -17.214 15.5345)" class="st12" width="1.7" height="33.8"/>
		<g class="st18">
			<g>
				<defs>
					<rect id="SVGID_6_" x="61.5" y="266.2" width="137.1" height="12.2"/>
				</defs>
				<clipPath id="SVGID_7_">
					<use xlink:href="#SVGID_6_"  style="overflow:visible;"/>
				</clipPath>
				<path class="st19" d="M61.5,277.5L197,266.2c0,0,1.2,3.2,1.7,5.4l-136.8,6.8L61.5,277.5z"/>
			</g>
		</g>
		<path class="st4" d="M198.3,194.6L25.1,209.1c-0.2,0-0.4-0.1-0.4-0.3l-2-23.7c0-0.2,0.1-0.4,0.3-0.4l173.1-14.5
			c0.2,0,0.4,0.1,0.4,0.3l2,23.7C198.6,194.4,198.5,194.5,198.3,194.6"/>
		<polygon class="st12" points="46.8,200 44.2,200.2 43.4,190.2 46,190 		"/>
		<polygon class="st12" points="55.1,199.3 52.5,199.5 51.6,189.5 54.2,189.3 		"/>
		<path class="st8" d="M205.8,169.3L32.2,184.1c-0.5,0-0.9-0.4-0.9-0.9l173.8-16.2L205.8,169.3z"/>
		<path class="st12" d="M205.1,168.3L31.5,183.1c-0.5,0-0.9-0.4-0.9-0.9l173.8-16.2L205.1,168.3z"/>
		<path class="st5" d="M53.3,113.5c0,0,7.8,30.2,2.7,43.4l8.9,0.4l-4.1-48.1L53.3,113.5z"/>
		<path class="st2" d="M186.4,270.5c0.1-0.3,0.2-0.6,0.4-0.8c1.7-2.3,3.9-2.5,6.2-4.2c1-0.8,0.7-4,3.2-3.1c0.9,0.3,3.1,1.4,5,2.1
			c2.8,1,7.1,0.6,10.4-0.4c4.4-1.3,9.1-2.7,13.2-4.7c4.3-2,8.6-4.2,12.7-6.6c3.4-2,8.9-4.3,11.5-7.3c4.4-5.1-0.7-17.7-1.3-24.1
			c-0.6-6.7,0-26.4,9-27c14.8-0.9,15,13.2,15.7,24.5c0.4,7.1,0.4,14.3-0.3,21.3c-0.9,9.9-7.3,15.6-15.8,20.2c-9,5-18.2,9.8-28,12.8
			c-4.8,1.4-9.5,1.9-14.4,2.7c-4.8,0.8-4.2,2.9-8.3,4.7c-2.3,1-4.4,2.4-6.8,3c-4.3,1-7.8-2-11.1-4.3c-0.8-0.6-1.4-1-1.8-1.8
			c-0.7-1.4-0.4-2.8-0.2-4.3C185.9,272.2,186.1,271.3,186.4,270.5"/>
		<path class="st3" d="M272.1,222.7c-8.4,1.6-16.7,3.2-25.1,4.9c0.5-0.1-9.7-37.6-10.2-39.8c-2-8.6-4.1-17.5-2.3-26.2
			c3.7-18.5,12.6-23,23.8-3.6c10.6,18.3,27.2,40.3,23.9,61.1c-0.1,0.5-0.2,0.9-0.4,1.3c-0.4,0.5-1.1,0.6-1.7,0.8L272.1,222.7z"/>
		<path class="st1" d="M480.3,159.5c12.2,7.4,25.8,12.4,39.8,14.7c2.5-11.5,5.2-23,8-34.5c1.2-4.9,2.5-10,4.9-14.5
			c1.3-2.4,6.1-6.8,4.6-9.9c-2.6-5.4-14.1,0.6-17.4,2.4c-8.5,4.7-16.3,11.3-23,18.3C495.6,137.8,478.8,158.6,480.3,159.5"/>
		<path class="st2" d="M597.5,430.6l0.8,47.2c-0.3,13.1,0.9,26.1,1.7,39.2c0.7,12.1-1.7,24.6,4,35.8c1.8,3.5,5.6,6,8.6,1.9
			c2.2-3.1,1.2-8.6,1.8-12.2c4.2-27.3,11.9-54,15.8-81.4C634.2,432.4,623.1,433.2,597.5,430.6"/>
		<polygon class="st4" points="600.2,544.7 597.1,552.6 612.1,565.7 625.7,566.3 630.1,559.1 611.8,543.1 		"/>
		<path class="st2" d="M564.1,431.1l-8.6,46.4c-3,20.7-9.8,40.9-12.7,61.7c-0.7,4.8-0.3,10-2.3,14.5c-2,4.4-5.8,4.6-9.1,1.6
			c-4.5-4-2.4-11.2-2.3-16.6c0.6-36.4-2.3-72.3-3-108.8c0-0.5,0-1,0.4-1.3c0.3-0.2,0.7-0.2,1.1-0.2
			C531,428.5,563.9,432.1,564.1,431.1"/>
		<polygon class="st4" points="528.8,546.6 524.1,553.6 535.7,569.8 548.8,573.4 554.8,567.4 540.5,547.7 		"/>
		<polygon class="st4" points="646.1,460.6 639.7,393.2 636.6,349.4 626.1,313.6 569.8,304.9 500.1,316.8 496.8,330.3 510.2,455.6 
			577.4,460.6 576.5,382.7 586.8,431 586.4,460.6 		"/>
		<path class="st20" d="M514.9,181.9c-0.1,2.3-0.2,4.6-0.2,6.8c-0.8,46.2,1.7,93.1,2,139.7c23.9-3.7,48-5.8,72.2-6.2
			c5.6-0.1,31,3.8,34.6,0.5c4.8-4.5-0.5-3.7-0.1-9.6c0.5-7.6-3.2-13.9-1.8-23c1.6-10.6,4.9-21.2,6.7-31.8c3.7-21.3,6-42.9,6.7-64.6
			c0.6-19.2,0-39.1-8.3-56.5c-20.4-42.8-86-42-104,2.7C517.4,153.3,515.5,167.6,514.9,181.9"/>
		<path class="st1" d="M589,121.9l-17.8,32.5c0.9,32.8,1.9,65.6,2.8,98.5c0.4,15.1,0.9,30.3,1.3,45.4c0.1,5.3,0.3,10.5,0.4,15.8
			c0.1,2.4-0.6,6.3,0.8,8.2c2.9,4.2,13.6,2.9,18.2,3.2c7.3,0.6,14.6,1.2,21.5,3.7c4.6,1.7,8.9,4.2,13.7,4.9c1.1,0.2,2.3,0.2,3.1-0.5
			c0.9-0.8,1.1-2.1,1.2-3.3c1.7-22.5,1.7-45.8,3-68.5c1-17.9,3.4-36,2.6-53.9c-0.9-18.5-3.8-36.8-7.3-54.9
			c-2.1-10.7-4.5-21.7-10.4-30.8c-6.7-10.4-16.2-14.6-27.8-16.9c-4.1-0.8-19.5-6.6-16.9,2.7C578.5,112.4,585.9,118.2,589,121.9"/>
		<path class="st1" d="M550.2,124.9l17.8,32.5c-0.4,0-2.3,79.6-2.4,85c-0.6,20.4-1.2,40.9-1.7,61.3c-0.2,5.7,0.6,12.3-0.5,17.9
			c-1.6,7.8-9.8,6.3-16.8,6.9c-15.3,1.4-31.4,4-46.8,3.2c-4.4-0.2,1.4-92.6,1.4-101.2c0-31-6.4-65.4,9.3-93.5
			c4.6-8.2,12.7-21.3,21.6-25.3c8.3-3.8,20.2-4.4,29.2-6.5l0.5,5.8L550.2,124.9z"/>
		<path class="st4" d="M588.9,46.2c2.8,4.9,4.2,10.6,4.4,16.2c0.1,1.5,0.2,3.2,1.4,4.1c1.3,1,0.2,3,1.1,1.8c1-1.3,4.4-5.7,4.5-7.3
			c0.4-3.8,0.3-7.6,0-11.3c-0.3-3.3-1-6.7-3.1-9.2c-1.3-1.5-3-2.5-4.6-3.5c-2.4-1.5-4.9-2.9-7.7-3.5c-4.8-0.9-7.7,0.8-3.5,4.2
			C584.4,40.2,587,42.9,588.9,46.2"/>
		<path class="st2" d="M559,110.4c0,2.3-0.4,4.7,1.6,6.5c1,0.9,2.3,1.2,3.6,1.4c3.3,0.5,6.8,0.3,10-0.7c1.3-0.4,2.7-1,3.7-1.9
			c1.2-1.1,1.2-2.2,1.3-3.7c0.1-1.7,0.4-3.5,0.6-5.3c0.5-3.9,0.7-7.8,0.8-11.7c5.7-1,12.5-2.8,14.4-8.8c0.6-1.9,0.6-4,0.7-6
			c0.1-8.3,0.1-16.6,0.2-25c0-2.9,0-5.8-1-8.5c-1.7-4.7-6.1-7.5-10.4-9.2c-11-4.5-23.8-4.3-34,2.1c-2.7,1.7-5.3,3.9-6.8,6.8
			c-2.4,4.6-2.1,10.2-1.7,15.5c0.3,4.9,0.7,9.7,1,14.6c0.4,5.6,1.2,12,5.6,15c2.3,1.6,5.3,1.9,7.3,3.9c3.5,3.5,1.8,8.8,2.8,13.1
			C559,109.2,559,109.8,559,110.4"/>
		<path class="st4" d="M597.8,76.9c-0.1-1.5-0.8-6.1-3.1-3.2c-0.6,0.7-0.8,1.8-0.8,2.8c0,1,0,2-0.3,2.9c-0.7,2.1-3.1,3.1-5.2,3.1
			c-0.8,0-1.7-0.2-2.4-0.6c-0.7-0.4-1.3-1.1-1.8-1.7c-1.4-1.6-2.7-3.1-4.1-4.7c-2.3-2.7-6.9-1.5-10.1-1.1c-3.6,0.5-7.2,1.6-10.2,3.9
			c-0.3,0.2-0.6,0.5-0.9,0.7c-0.7,0.6-1.4,1.2-2.3,1.6c-2.8,1.4-6.2-0.1-8.2-2.6c-0.9-1.2-1.7-2.7-3.1-2.9c-1.1-0.2-2.1,0.6-2.7,1.6
			c-0.6,1-0.7,2.2-0.8,3.4c-0.3,4.3,0.3,8.7,2.2,12.5c4,8.3,11.9,9.3,19.7,9.1c3.1-0.1,6.2-0.1,9.3-0.2c5.7-0.1,11.7-0.4,16.4-3.7
			c4.2-2.9,6.7-7.9,7.7-13C597.8,82.4,598,79.6,597.8,76.9 M577,88.6c-3,2-6.3,2.1-9.6,1.1c-1.4-0.4-0.8-2.8,0.6-2.4
			c2.8,0.8,5.4,0.8,7.9-0.9C577.1,85.7,578.3,87.8,577,88.6"/>
		<path class="st4" d="M599,31.8c0.5-2,1-4.1,1.2-6.1c-1.9,0.7-4,0.9-6,0.5c0-1.2,0-2.4,0-3.6c0-1-13.5-1.7-14.6-1.8
			c-10.2-0.8-19.6-1.6-28.9,3.9c-7.9,4.7-13,11.7-14.2,20.8c-1.2,8.7,1.7,20.1,6.7,27.3c0-2.3-1.4-7.8-0.8-10
			c0.3-2.2,1.1-4.3,2.2-6.3c2.1-3.9,5.4-7.2,9.1-9.6c6-3.8,13-5.8,20-6.7c6.4-0.9,14.2-1.7,20.5,0c3,0.8,3.5,1.6,5.4-1.5
			c0.3-0.5,2.9-6.8,2.6-6.8C601.1,31.8,600,31.8,599,31.8"/>
		<path class="st3" d="M798.6,186.3l-228.8,22.7l-228.8-22.7c-6.4-0.6-11.9,4.7-11.5,11.2l9.5,226.3c0.3,5.2,4.3,9.3,9.4,9.9
			c37.6,3.9,184.5,18.5,201,20.4c0.8,0.1,1.6,0.6,1.9,1.3c1.1,2.2,5.1,6.6,18.4,6.6c13.3,0,17.3-4.4,18.4-6.6
			c0.4-0.8,1.1-1.2,1.9-1.3c16.5-1.9,163.4-16.5,201-20.4c5.1-0.5,9.1-4.7,9.4-9.9l9.5-226.3C810.5,191,805,185.7,798.6,186.3"/>
		<path class="st7" d="M798.6,182.6l-228.8,22.7l-228.8-22.7c-6.4-0.6-11.9,4.7-11.5,11.2l9.5,226.3c0.3,5.2,4.3,9.3,9.4,9.9
			c37.6,3.9,184.5,18.5,201,20.4c0.8,0.1,1.6,0.6,1.9,1.3c1.1,2.2,5.1,6.6,18.4,6.6c13.3,0,17.3-4.4,18.4-6.6
			c0.4-0.8,1.1-1.2,1.9-1.3c16.5-1.9,163.4-16.5,201-20.4c5.1-0.5,9.1-4.7,9.4-9.9l9.5-226.3C810.5,187.3,805,182,798.6,182.6"/>
		<path class="st21" d="M570.7,203.7c-105.4-70.5-211.6-38.6-211.6-38.6v244.8c146.9-29.8,210.8,31.9,210.8,31.9
			s63.9-61.7,210.8-31.9V165.1C780.6,165.1,676.1,133.2,570.7,203.7"/>
		<path class="st22" d="M359.1,165.1c0,0-4.7,18.6-21.1,29.8l10.5,233.9c0,0,10.5-8.2,10.5-18.9V165.1z"/>
		<path class="st22" d="M780.6,165.1c0,0,4.7,18.6,21.1,29.8l-10.5,233.9c0,0-10.5-8.2-10.5-18.9V165.1z"/>
		<path class="st23" d="M348.5,428.8c0,0,146.5-33.5,212,25.5h9.3v-12.5c0,0-66.1-62.8-210.8-31.9L348.5,428.8z"/>
		<path class="st23" d="M791.2,428.8c0,0-146.5-33.5-212,25.5h-9.3v-12.5c0,0,66.1-62.8,210.8-31.9L791.2,428.8z"/>
		<path class="st24" d="M460.7,150.1c-12.7-1.3-25.3-1.8-37.3-1.9c-5.5-0.1-51,1.7-51,3.2v69.2v177.1c0-1.6,45.6-3.3,51.1-3.2
			c39.2,0.4,83.2,7.6,117.8,26.7c5.8,3.2,29.3,15.8,29.3,24.6V206.1c0-4.9-1.8-9.6-5.2-13.2C539.1,164.8,499.4,154,460.7,150.1"/>
		<path class="st20" d="M680.4,150.1c12.7-1.3,25.3-1.8,37.3-1.9c5.5-0.1,51,1.7,51,3.2v69.2v177.1c0-1.6-45.6-3.3-51.1-3.2
			c-39.2,0.4-83.2,7.6-117.8,26.7c-5.8,3.2-29.3,15.8-29.3,24.6V206.1c0-4.9,1.8-9.6,5.2-13.2C602,164.8,641.6,154,680.4,150.1"/>
		<g class="st25">
			<g>
				<defs>
					<rect id="SVGID_8_" x="570.5" y="148.2" width="198.2" height="297.6"/>
				</defs>
				<clipPath id="SVGID_9_">
					<use xlink:href="#SVGID_8_"  style="overflow:visible;"/>
				</clipPath>
				<path class="st26" d="M680.4,150.1c12.7-1.3,25.3-1.8,37.3-1.9c5.5-0.1,51,1.7,51,3.2v69.2v177.1c0-1.6-45.6-3.3-51.1-3.2
					c-39.2,0.4-83.2,7.6-117.8,26.7c-5.8,3.2-29.3,15.8-29.3,24.6V206.1c0-4.9,1.8-9.6,5.2-13.2C602,164.8,641.6,154,680.4,150.1"/>
			</g>
		</g>
		<g class="st25">
			<g>
				<defs>
					<rect id="SVGID_10_" x="570.5" y="218" width="123.3" height="227.9"/>
				</defs>
				<clipPath id="SVGID_11_">
					<use xlink:href="#SVGID_10_"  style="overflow:visible;"/>
				</clipPath>
				<path class="st27" d="M570.5,218v227.9c0-8.8,23.5-21.4,29.3-24.6c27.8-15.3,61.6-23,94.1-25.6l0,0
					C593.7,352.2,574,245.7,570.5,218"/>
			</g>
		</g>
		<path class="st2" d="M975,208.4c-0.3-0.1-0.7-0.3-1-0.3c-3.3-0.4-5.2,1.3-8.5,1.8c-1.4,0.2-3.9-2.6-5.2,0.2
			c-0.5,1-1.2,3.7-2.2,5.9c-1.4,3.2-5.1,6.4-8.6,8.4c-13.5,7.9-28.7,11.9-44,15.4c-0.9,0.2-1.8,0.4-2.6,0.2c-1.5-0.4-2.4-2-3.2-3.4
			c-3.5-6.5-7.6-12.7-12.2-18.5c-4.1-5.1-8.8-10.1-14.8-12.9c-5.9-2.9-13.4-3.4-19,0.1c-4.2,2.6-7,7.3-7.2,12.3
			c-0.6,12.2,15.5,20,23.9,26.3c8,5.9,16.4,11.3,25.1,16c1.1,0.6,2.2,1.2,3.4,1.3c1.3,0.1,2.6-0.3,3.8-0.7
			c15.9-5.4,31.3-12.3,46.6-19.4c4.2-2,6.8-5.9,10.7-7.7c2.5-1.1,5.3-0.2,7.9-0.8c2.6-0.5,5.8-1.9,8-3.4c4.3-2.9,4.5-8.2,5.2-12.8
			c0.2-1.2,0.3-1.9-0.1-3c-0.6-1.7-2-2.6-3.4-3.6C976.8,209.4,976,208.9,975,208.4"/>
		<path class="st12" d="M869.3,239.4c8.1-5.8,16.1-11.5,24.2-17.3c-0.5,0.4-23.9-38.1-25.4-40.4c-5.6-8.6-11.5-17.4-20.2-22.8
			c-18.5-11.6-42,5.2-34.8,26.6c7.7,23.3,25,45.6,45.2,59.5c0.4,0.3,0.9,0.6,1.4,0.7c0.7,0.1,1.4-0.4,2-0.8
			C864.2,243.1,866.7,241.2,869.3,239.4"/>
		<polygon class="st2" points="850.8,538.9 850.4,563.7 865.2,563.9 865.6,536.4 		"/>
		<path class="st4" d="M863.9,560l-12.8,4.2l-3.8,4.1l0.6,9.7l34.6,2.7c2.9-4.3,1-10-3.9-11.7l-1.6-0.6L863.9,560z"/>
		<polygon class="st2" points="744.6,515.1 734.9,537.9 748.4,543.7 759.2,518.3 		"/>
		<path class="st4" d="M748.2,544.1c-0.5-0.5-1.1-1-1.7-1.5c-1.6-1.2-14.8-8.1-15.9-5c-0.2,0.5-0.1,1.1-0.1,1.6
			c1.1,9,3.2,17.9,6.3,26.5c1.3,3.7,3.3,7.7,7.1,8.6c1.7,0.4,3.4,0.1,5.1-0.3c2.5-0.6,4.9-1.3,7.2-2.2c0.9-0.3,1.8-0.7,2.2-1.5
			c0.9-1.6-0.7-3.5-2.3-4.4c-1.6-0.9-3.6-1.5-4.4-3.2c-0.4-0.7-0.4-1.6-0.4-2.4C750.9,554.2,752,548.3,748.2,544.1"/>
		<path class="st5" d="M837.2,423.7c-4.8,22.1-18.7,38-33.4,54.2c-16.9,18.6-32.8,38.1-47.6,58.4c-6.4-2.7-12.8-5.3-19.2-8
			c5.3-31.1,20.1-59.6,31.5-88.9c7.9-20.4,14.4-42,14.7-64.1c0.2-11-2.5-21-3.9-31.7c-1.8-13.2-1.9-26.8-3.5-40
			c-0.5-4.5-0.8-9.7,2.6-12.6c1.5-1.3,3.5-1.8,5.5-2.2C856.6,274.7,846.4,381.6,837.2,423.7"/>
		<path class="st5" d="M777.9,307.8c0-13.4,1.6-26.3,4.1-36.2c20.7-1.1,44.1,1.2,64.5,5.3c20,4.1,32.5,8.4,32.6,30.1
			c0.3,39.9,15.9,73.9,22.6,112.2c3.9,22.3-2.8,42.2-10.3,62.9c-8.6,23.6-15.9,47.7-21.9,72.1c-6.9,0-13.9-0.1-20.8-0.1
			c-6.8-30.8-4-62.7-4.6-94.2c-0.4-21.9-2.6-44.3-10.7-64.8c-8.8-22.6-21.6-13.6-36.2-26.7C783.1,355.5,778,330.9,777.9,307.8"/>
		<path class="st6" d="M801.4,154.3c-2.3,1.8-4.3,3.9-6.3,6c-1.8,1.9-3.6,3.8-5.3,5.7c-6.2,6.6-9.2,16.3-11.8,24.7
			c-13.9,44.1-18.9,104.7-9.9,150.8c34.2,3,73.8-5.7,107.9-10.3c3.3-0.5,7.1-1.2,8.8-4.1c1-1.7,1.1-3.9,1.1-5.9
			c0-29.3-6.2-60.7-12-89.6c-2.4-12.2-5.5-24.3-9.3-36.1c-4.1-12.5-8.7-26-18.3-35.5c-10.3-10.1-29.9-15.1-42.7-7.2
			C802.8,153.2,802.1,153.7,801.4,154.3"/>
		<path class="st2" d="M805.2,160.4c-0.6-4-1.2-8-1.9-11.9c-0.8-0.4-1.6-0.8-2.4-1.3c-14.3-9.1-38.2-58-0.2-68.9
			c34.5-9.9,32.7,37.5,26,57.3c-1.2,3.4-2.7,6.6-5,9.4c-1.6,1.9-1.9,1.5-1.7,3.7c0.2,2.1,2.3,4.5,2.8,6.8c0.5,2.4,0.3,5.1-1.1,7.1
			c-0.9,1.2-2.1,2.2-3.4,2.9c-2.1,1.1-4.6,1.7-6.9,1.3C808.8,166.1,805.6,163.3,805.2,160.4"/>
		<path class="st4" d="M834.9,117.6c-2.9,9.7-5.3,13.5-8.8,17.9c-7.2,9.2-1.2-23.4-4.2-34.7c-0.2-0.9-0.4-1.8,0-2.6
			c0.4-0.7,1.3-1,2.1-1.1C838.6,93.9,838.6,106.6,834.9,117.6"/>
		<path class="st4" d="M796.7,135.2c-2.3,3.3-7.4,2.4-11,0.6c-14.8-7.4-23.5-25.3-20.2-41.5c2.7-13.6,19.8-23.7,23.3-6.9
			c1.2,6-2.4,14.2-1.6,20.8C788.4,117.6,792.8,126.7,796.7,135.2"/>
		<path class="st4" d="M834.7,65.8c1.7,0.7,3.3,1.3,5.1,2c3.7,1.4,6.3,1.9,10.1-0.2c1.1-0.6,8.3-7.5,6.6-8.9
			c11.6,9.4,2.1,23.2-2.3,33c-2.9,6.6-3.5,15.9-10.1,20.2c-7.2,4.7-12.2-1.3-18.8-3.9c-5.8-2.4-12.1-3.6-18-5.7
			c-9.8-3.5-24.3-9.6-21.1-22.6c3.8-15.2,19.2-19,33-17.8C825.2,62.2,829.9,63.8,834.7,65.8"/>
		<path class="st3" d="M989.4,357.8l-35.8-53.9v-183c0-3.2,4.2-4.5,5.9-1.8l29.9,44.9V357.8z"/>
		<polygon class="st20" points="987.8,165.8 957.1,120.2 944.4,122.8 981.2,169 981.2,359.4 987.8,357.8 		"/>
		<polygon class="st20" points="842.8,152.1 864.7,144.1 981.2,169 981.2,353.3 842.8,328.4 		"/>
		<path class="st3" d="M971.5,363.5l-135.9-18.8c-3-0.6-5.2-3.3-5.2-6.3V157.8c0-4.1,3.7-7.1,7.7-6.3l133.3,18.3V363.5z"/>
		<path class="st7" d="M989.4,164c-0.3,1.4-3.7,3.4-8.2,4.9c-4.8,1.6-9.1,1.9-9.7,0.7l-0.1,0V363c0,0.1,0,0.3,0,0.4v0.1l0,0
			c0.5,1.2,4.9,1,9.7-0.7c4.9-1.6,8.6-4,8.2-5.3V164z"/>
		<polygon class="st21" points="944.4,122.8 944.4,161.1 981.2,169 		"/>
		<polygon class="st23" points="981.2,169 875.2,141.4 875.2,146.3 		"/>
		<polygon class="st1" points="846.5,308 958.4,323.4 958.4,348.5 846.5,333 		"/>
		<g class="st28">
			<g>
				<defs>
					<rect id="SVGID_12_" x="835.6" y="169.7" width="135.9" height="193.8"/>
				</defs>
				<clipPath id="SVGID_13_">
					<use xlink:href="#SVGID_12_"  style="overflow:visible;"/>
				</clipPath>
				<path class="st29" d="M835.6,344.7l135.9,18.8V169.7C971.5,169.7,953.6,316.8,835.6,344.7"/>
			</g>
		</g>
		<path class="st2" d="M915.4,288.8c-0.2-0.3-0.5-0.5-0.8-0.7c-2.8-1.7-5.3-0.9-8.5-1.7c-1.4-0.4-2.6-4-4.8-1.9
			c-0.8,0.8-2.6,2.9-4.4,4.5c-2.6,2.4-7.3,3.9-11.2,4.3c-15.5,1.9-31.1-0.5-46.5-3.4c-0.9-0.2-1.8-0.3-2.5-0.9
			c-1.3-1-1.5-2.8-1.6-4.4c-0.6-7.4-1.9-14.7-3.8-21.8c-1.7-6.4-4.1-12.7-8.4-17.7c-4.3-5-10.9-8.4-17.4-7.5
			c-4.9,0.7-9.3,3.9-11.5,8.4c-5.5,11,6.2,24.5,11.4,33.6c4.9,8.6,10.5,16.9,16.6,24.7c0.8,1,1.5,2,2.6,2.5c1.1,0.6,2.5,0.8,3.8,0.9
			c16.8,1.4,33.6,1.2,50.5,0.8c4.6-0.1,8.6-2.7,12.9-2.8c2.7-0.1,4.9,1.9,7.5,2.4c2.6,0.5,6.1,0.5,8.6,0.1c5.1-0.9,7.4-5.7,9.9-9.7
			c0.6-1,1-1.7,1.1-2.7c0.1-1.8-0.8-3.2-1.7-4.7C916.7,290.4,916.1,289.5,915.4,288.8"/>
		<path class="st6" d="M806,275c9.7-2.1,19.4-4.2,29.1-6.2c-0.6,0.1-6.7-44.5-7.2-47.2c-1.7-10.1-3.6-20.5-9.4-29
			c-12.4-18-40.5-12-42.6,10.5c-2.2,24.5,4.7,51.8,17.7,72.6c0.3,0.5,0.6,0.9,1.1,1.2c0.6,0.3,1.4,0.2,2.1,0
			C799.9,276.3,803,275.6,806,275"/>
		<path class="st4" d="M459.4,532.3c-1.2-10.5-6.5-18.8-16.1-23.3c-7.9-3.7-16.7-4.6-25.3-5.7c-19.2-2.5-37.5-4.9-56.8-4.2
			c-15.5,0.6-25,13.8-32.3,26.8c-4.6,8.2-3.3,12.1,2.4,18.9c5.3,6.3,11.7,11.7,18.9,15.8c14.2,8.1,36.1,6.1,51.7,4.3
			c14.8-1.6,29.3-6.1,42.4-12.9C452.9,547.8,460.6,542.5,459.4,532.3"/>
		<path class="st4" d="M362.6,560.8c-2.6,6-4.8,12.2-6.7,18.4c-1,3.3-1.9,6.7-1.8,10.2c0.3,8.1,9.3,14,15.2,6.5
			c2.6-3.3,4.6-7,6.1-10.9c2.2-5.8-2.4-2.4-6.2-4.2c-4.4-2-4.3-3.6-2.4-7.8c2.4-5.4,5.3-8.8,5-15c-0.1-1.7-0.6-3.7-2.1-4.3
			c-1.2-0.5-2.6,0-3.6,0.9c-0.9,0.9-1.5,2.1-2,3.3C363.4,558.8,363,559.8,362.6,560.8"/>
		<path class="st30" d="M392.6,370.3c5.2,0.5,10.4,1,15.7,1.5c0.8-4.6,1.3-9.3,1.4-14c4.5-0.8,9.9-2.3,11.5-7.1
			c0.5-1.5,0.5-3.2,0.5-4.8c0.1-6.7,0.1-13.5,0.2-20.2c0-2.3,0-4.7-0.7-6.9c-1.4-3.8-4.8-6.1-8.3-7.5c-8.7-3.6-18.9-3.5-26.9,1.6
			c-2.1,1.4-4.2,3.1-5.4,5.5c-1.9,3.7-1.7,8.3-1.4,12.5c0.3,3.9,0.5,7.9,0.8,11.8c0.3,4.5,1,9.8,4.4,12.2c1.8,1.3,4.2,1.5,5.8,3.2
			C392.9,361.1,391.6,366.2,392.6,370.3"/>
		<path class="st4" d="M414,318.5c0.2,0.4,0.4,0.7,0.6,1.1c0.8,2.1,0.3,4.5,1.1,6.5c1.2,3.3,5.1,5.2,5.7,8.7
			c0.5,2.8-1.4,5.5-1.5,8.4c-0.1,3.1,1.9,6.1,1.7,9.2c-0.2,2.7-1.9,6.5-3.4,8.7c0.5-0.7,5-0.5,6.1-1.3c1.8-1.1,2-1.8,2.5-3.7
			c0.5-1.9,0.1-3.7,0.8-5.6c1-2.3,3-4.1,3.7-6.6c0.9-3.4-0.9-6.9-0.9-10.5c0.1-5.3,4.6-10.4,2.9-15.5c-1-3-4-4.8-5.6-7.4
			c-1.3-2-1.8-4.4-2.7-6.6c-0.9-2.2-2.4-4.4-4.7-5c-1.3-0.4-2.6-0.2-3.9-0.4c-2.3-0.4-4.1-1.9-6.3-2.6c-3.1-1-8.5,2.2-10.3,4.9
			c-1.7,2.6-0.8,4.8,1.1,7.1C404,311.8,411.4,314.1,414,318.5"/>
		<path class="st4" d="M369.6,303.9c-1.8,1.4-4.1,2.4-5.8,4c-3.2,3.2-3.8,8.1-3.8,12.6c0,4-1.7,7.6-1.2,11.8
			c0.3,2.8,1.6,5.6,3.9,7.3c2.9,2,7.4,2.3,8.7,5.6c1.4,3.6-2.2,8.1,0.1,11.2c1.3,1.7,3.7,1.9,5.5,3c2,1.2,3.1,3.5,4.3,5.5
			c1.2,2,3.1,4,5.5,4c0-3.6,0.1-6.4-1.5-9.7c-0.9-1.9-3.6-5.4-1.6-7.5c1.2-1.7,4.2-2.4,4.3-4.5c0-1-0.7-1.8-1.3-2.7
			c-2.2-3.2-2.5-7.5-1.1-11.2s4.3-6.6,7.8-8.3c4.1-2.1,3.4-3.1,4.5-7c1-3.6,3.1-4.5,6.3-5.9c2.9-1.2,3.8-2,4.9-4.7
			c0.8-2,1.7-4.4,0.5-6.6c-0.9-1.8-2.6-3-4.2-4.2c-3.4-2.5-7.1-5.1-11.3-4.7c-2.3,0.2-4.5,1.3-6.8,1.5c-1.5,0.1-3.1-0.2-4.6-0.2
			c-2.6,0-5.4,0.8-7.5,2.4c-2.1,1.6-2,3.3-3.2,5.5C371.5,302.3,370.6,303.1,369.6,303.9"/>
		<path class="st4" d="M378.7,289c0.4-2.5,0-5.8-2.4-6.6c-1.3-0.4-2.8,0.1-4.1-0.2c-2.9-0.5-4-4-5.5-6.5c-0.2-0.4-0.5-0.8-0.9-0.9
			c-0.6-0.2-1.2,0-1.9,0.1c-2.9,0.4-5.1-2.4-7.9-3.4c-3.4-1.2-7.6,1-8.5,4.4c-0.4,1.4-0.3,2.9-0.7,4.4c-1.5,5.8-9.9,8.4-10,14.4
			c-0.1,4,4,7.8,2.5,11.6c-0.9,2.4-4,4.1-3.6,6.7c0.3,1.6,2,2.7,3.7,2.7c1.7-0.1,3.2-1,4.4-2.1c2-1.8,3.4-4,5.3-5.9
			c1.9-1.9,4.4-3.4,7-3.1c2.5,0.3,4.9,2.2,7.4,1.7c2-0.4,3.5-2.2,5.5-2.7c1.8-0.5,3.8,0.2,5.7,0.3c1.9,0.1,4.2-1,4.3-2.9
			c0-0.5-0.1-0.9,0-1.4c0.4-1.2,2.5-1.2,2.9-2.5c-1-1.5-2.4-0.9-3.2-2.9C378,292.5,378.5,290.5,378.7,289"/>
		<path class="st20" d="M406.8,365.3c7.3-1,14.7-2.3,20.8,0.4c5.2,2.3,5.1,8.8,6.2,13.7c3.8,16.3,6.7,32.9,9,49.5
			c1.1,7.9,2.9,16.5,2.9,24.5c0,6.4-1.6,12.7-1.2,19.3c0.4,5,2.5,10.5,7.1,12.5c2.3,1,5,1.1,7.3,2.1c2.3,1,4.3,3.8,3.2,6
			c-0.6,1.1-1.7,1.7-2.7,2.3c-5.8,3.2-11.5,6.4-17.3,9.6c-4.4,2.5-8.8,4.9-13.6,6.6c-6.7,2.4-13.9,3.2-21,3.6
			c-18.4,0.9-37-1.1-54.7-6c-9.6-2.6-18.8-7.3-16.5-18.1c2.4-11.1,7-22.3,12-32.4c6-12.3,7.8-27.2,12.1-40.3
			c4.3-13.2,8.9-26.3,13.5-39.4c0,0,0-0.1,0.1-0.1c1.7-4.8,2.4-9.5,6.1-13.4c5.1-5.3,7.5-1.1,13.3,0
			C397.5,366.4,402.1,365.9,406.8,365.3"/>
		<path class="st30" d="M424.7,567.4c1.7,0.1,3.3,0.2,5,0.3c1.8,0.1,3.8,0.1,5.2-1.1c1.6-1.5,1.5-4.3,0.1-6
			c-1.3-1.8-3.5-2.7-5.6-3.4c-5.1-1.6-10.4-2.1-15.7-2.3c-0.5,0-1.1,0-1.6,0.2c-0.9,0.3-1.4,1.3-1.6,2.1
			C407.4,566.3,418.2,567.1,424.7,567.4"/>
		<path class="st30" d="M360.8,583c-0.1,0.7-0.2,1.5,0.1,2.2c0.2,0.5,0.7,0.9,1.1,1.2c3.4,2.2,8-0.2,10.6-3.3c2.6-3.1,4.4-7,7.7-9.3
			c7.6-5.3,0.6-14.9-7.3-12.7C363.8,563.6,361.8,574.8,360.8,583"/>
		<path class="st4" d="M463.9,533.3c6.6-4.9,13.2-10.4,15.6-18.5c2.4-8.2-1-19.7-9.5-24.4c-10.4-5.7-20.6,1.3-28,8
			c-15.2,13.6-31.7,25.7-47.9,38.2c-5.5,4.2-24.4,19.7-24.4,19.7c-0.5,2.2,9.7,22,12.4,21.3C411.6,569.7,440.3,550.7,463.9,533.3"/>
		<path class="st4" d="M315.5,542.7c-6.5-3.1-13-6.9-15.5-14.5c-2.6-7.6,0.4-20,8.4-26.9c9.8-8.4,19.7-4,27,0.7
			c14.9,9.7,31.1,17.5,47,25.8c5.4,2.8,24,13.4,24,13.4c0.6,2.1-8.6,24.5-11.2,24.5C366.6,565.6,338.6,554,315.5,542.7"/>
		<path class="st4" d="M413.6,571.4c5.9,2.9,12,5.5,18.3,7.7c3.3,1.2,6.7,2.3,10.2,2.3c8.2,0.1,14.6-8.7,7.3-15
			c-3.2-2.8-6.8-5-10.7-6.7c-5.7-2.5-2.5,2.3-4.5,6.1c-2.3,4.4-3.9,4.2-8,2.1c-5.3-2.7-8.7-5.8-14.9-5.7c-1.7,0-3.7,0.4-4.5,1.9
			c-0.6,1.2-0.1,2.6,0.7,3.6c0.8,1,2,1.6,3.2,2.2C411.6,570.4,412.6,570.9,413.6,571.4"/>
		<path class="st30" d="M498.9,462.4c-0.1-0.4-0.2-0.8-0.2-1.2c0.2-3.6,2.4-5.4,3.6-8.8c0.5-1.5-2-4.8,1.2-5.6
			c3.4-0.8,9.9-0.3,12.2-3.4c1-1.4,2.3-3.2,3.9-2.7c0.6,0.1,1,0.5,1.4,0.9c13.8,13.3,0.4,29.4-14.7,28.9c-1.3,0-2.1-0.1-3.2-0.7
			c-1.7-1-2.4-2.7-3.2-4.4C499.6,464.5,499.2,463.5,498.9,462.4"/>
		<path class="st20" d="M525.3,464.8c3.4,1.4,7.6,0,10-2.9c2.3-2.9,3-6.9,2.4-10.5c-0.6-3.7-2.3-7-4.4-10.1
			c-2.4-3.7-5.4-7.2-9.5-8.8c-2.3-0.9-4.8-1.1-7.2-1.1c-1.7,0-3.5,0.1-4.7,1.2c-0.9,0.8-1.2,2-1.4,3.2c-1.6,7.5-0.4,8.6,4.6,13.6
			C519.4,453.8,522.6,459.3,525.3,464.8"/>
		<path class="st21" d="M298.8,382.6V371c0,0,61.8-5.7,99,19L298.8,382.6z"/>
		<path class="st20" d="M286.2,381.3l8.3-6.4c0,0,50.6-9.7,103.4,15.1v137.5c0,0-35.8-25.8-111.7-15.6V381.3z"/>
		<path class="st21" d="M496.9,382.6V371c0,0-61.8-5.7-99,19L496.9,382.6z"/>
		<path class="st20" d="M509.5,381.3l-8.3-6.4c0,0-50.6-9.7-103.4,15.1v137.5c0,0,35.8-25.8,111.7-15.6V381.3z"/>
		<path class="st3" d="M397.9,390c5.8-0.3,10.1-1.7,10.4-3.3c0,0,0-0.1,0.1-0.1c0,0-0.1,0-0.1,0c0.1,0,0.2,0,0.3-0.1
			c1.6-0.7,9.4-2.3,11.7-2.8c0.2,0,0.3-0.1,0.5-0.1c0,0,0.1,0,0.1,0c6.6-1.6,13.2-2.9,19.9-3.8c25.4-4,44-3.3,54.5-1.7
			c3.9,0.5,7.7,1.3,11.4,2.5c0.7,0.2,1.3,0.5,1.9,0.8c0,0,0,0,0,0l0,0c1.2,0.7,2.3,1.5,3.1,2.8c1.1,1.8,1.1,3.5,1.1,5.5v121.4
			c0,3.4-2.8,6.8-6.2,6.2c-20.7-3.8-37.6-3.7-50.6-2.8c-13.7,1-27.3,3-40.6,6.7c-4.3,1.2-9.7,2.1-13.7,4.2c-0.4,0.2-0.8,0.4-1.2,0.4
			c-0.3,0.1-0.5,0.1-0.8,0.1c-0.3,0-0.7,0-1-0.1c-0.3-0.1-0.6-0.2-1-0.3c-1.4-0.7-2.4-2.2-2.4-3.9V392.9
			C395.3,391.9,396.2,390.9,397.9,390"/>
		<path class="st3" d="M397.9,390c-5.8-0.3-10.1-1.7-10.4-3.3c0,0,0-0.1-0.1-0.1c0,0,0.1,0,0.1,0c-0.1,0-0.2,0-0.3-0.1
			c-1.6-0.7-9.4-2.3-11.7-2.8c-0.2,0-0.3-0.1-0.5-0.1c0,0-0.1,0-0.1,0c-6.6-1.6-13.2-2.9-19.9-3.8c-25.4-4-44-3.3-54.5-1.7
			c-3.9,0.5-7.7,1.3-11.4,2.5c-0.7,0.2-1.3,0.5-1.9,0.8c0,0,0,0,0,0l0,0c-1.2,0.7-2.3,1.5-3.1,2.8c-1.1,1.8-1.1,3.5-1.1,5.5v121.4
			c0,3.4,2.8,6.8,6.2,6.2c20.7-3.8,37.6-3.7,50.6-2.8c13.7,1,27.3,3,40.6,6.7c4.3,1.2,9.7,2.1,13.7,4.2c0.4,0.2,0.8,0.4,1.2,0.4
			c0.3,0.1,0.5,0.1,0.8,0.1c0.3,0,0.7,0,1-0.1c0.3-0.1,0.6-0.2,1-0.3c1.4-0.7,2.4-2.2,2.4-3.9V392.9
			C400.5,391.9,399.6,390.9,397.9,390"/>
		<g class="st31">
			<g>
				<defs>
					<rect id="SVGID_14_" x="298.8" y="410.9" width="101.6" height="115"/>
				</defs>
				<clipPath id="SVGID_15_">
					<use xlink:href="#SVGID_14_"  style="overflow:visible;"/>
				</clipPath>
				<path class="st32" d="M387.5,410.9c0,0-12.3,80.3-88.6,104.8v0c16.4-2.2,30-2,40.9-1.2c13.7,1,27.3,3,40.6,6.7
					c4.3,1.2,9.7,2.1,13.7,4.2c0.4,0.2,0.8,0.4,1.2,0.4c0.3,0.1,0.5,0.1,0.8,0.1c0.3,0,0.7,0,1-0.1c0.3-0.1,0.6-0.2,1-0.3
					c1.4-0.7,2.4-2.2,2.4-3.9V410.9H387.5z"/>
			</g>
		</g>
		<path class="st7" d="M397.9,389.7c-5.8,0-10.4-1.6-10.4-3.2l0,137.5c0,2,4.7,3.6,10.4,3.6c5.8,0,10.4-1.6,10.4-3.6l0-137.4
			C407.8,388.3,403.7,389.7,397.9,389.7"/>
		<g class="st33">
			<g>
				<defs>
					<rect id="SVGID_16_" x="283" y="376.8" width="229.8" height="15.2"/>
				</defs>
				<clipPath id="SVGID_17_">
					<use xlink:href="#SVGID_16_"  style="overflow:visible;"/>
				</clipPath>
				<path class="st34" d="M511.6,384.2c-0.8-1.3-1.9-2.2-3.1-2.8v0c0,0,0,0,0,0c-0.6-0.3-1.2-0.6-1.9-0.8c-3.6-1.2-7.5-2-11.4-2.5
					c-10.5-1.5-29.1-2.2-54.5,1.7c-6.7,0.9-13.3,2.1-19.9,3.8c0,0-0.1,0-0.1,0c-0.2,0-0.3,0.1-0.5,0.1c-2.3,0.5-10.1,2.1-11.7,2.8
					c-0.1,0-0.2,0-0.3,0.1c0,0,0.1,0,0.1,0c-0.1,0-0.1,0.1-0.1,0.1c0,0.1-0.1,0.2-0.1,0.4c-1,1.6-5,2.7-10.2,2.7
					c-5.5,0-10.1-1.5-10.4-3c0,0,0,0,0-0.1c0,0,0,0,0,0c0,0,0-0.1,0-0.1v0.1c0,0,0-0.1-0.1-0.1c0,0,0.1,0,0.1,0
					c-0.1,0-0.2,0-0.3-0.1c-1.6-0.7-9.4-2.3-11.7-2.8c-0.2,0-0.3-0.1-0.5-0.1c0,0-0.1,0-0.1,0c-6.6-1.7-13.2-2.9-19.9-3.8
					c-25.4-4-44-3.3-54.5-1.7c-3.9,0.5-7.7,1.3-11.4,2.5c-0.7,0.2-1.3,0.5-1.9,0.8c0,0,0,0,0,0v0c-1.2,0.7-2.3,1.5-3.1,2.8
					c-1.1,1.8-1.1,3.5-1.1,5.5v2.3c0-2,0.1-3.7,1.1-5.5c0.8-1.3,1.9-2.2,3.1-2.8v0c0,0,0,0,0,0c0.6-0.3,1.2-0.6,1.9-0.8
					c3.6-1.2,7.5-2,11.4-2.5c10.5-1.5,29.1-2.2,54.5,1.7c6.7,0.9,13.3,2.1,19.9,3.8c0,0,0.1,0,0.1,0c0.2,0,0.3,0.1,0.5,0.1
					c2.3,0.5,10.1,2.1,11.7,2.8c0.1,0,0.2,0,0.3,0.1c0,0,0,0.1,0,0.1c0,0,0,0,0,0c0,0,0,0,0,0.1c0.3,1.5,4.9,3,10.4,3
					c5.3,0,9.2-1.2,10.2-2.7c0.1-0.1,0.1-0.2,0.1-0.4c0,0,0-0.1,0.1-0.1c0,0-0.1,0-0.1,0c0.1,0,0.2,0,0.3-0.1
					c1.6-0.7,9.4-2.3,11.7-2.8c0.2,0,0.3-0.1,0.5-0.1c0,0,0.1,0,0.1,0c6.6-1.6,13.2-2.9,19.9-3.8c25.4-4,44-3.3,54.5-1.7
					c3.9,0.5,7.7,1.3,11.4,2.5c0.7,0.2,1.3,0.5,1.9,0.8c0,0,0,0,0,0v0c1.2,0.7,2.3,1.5,3.1,2.8c1.1,1.8,1.1,3.5,1.1,5.5v-2.3
					C512.8,387.7,512.7,385.9,511.6,384.2"/>
			</g>
		</g>
		<g class="st31">
			<g>
				<defs>
					<rect id="SVGID_18_" x="387.5" y="386.5" width="7.8" height="140.9"/>
				</defs>
				<clipPath id="SVGID_19_">
					<use xlink:href="#SVGID_18_"  style="overflow:visible;"/>
				</clipPath>
				<path class="st35" d="M387.5,386.5l0,137.5c0,1.7,3.3,3.1,7.8,3.5V389.6C390.8,389.2,387.5,387.8,387.5,386.5"/>
			</g>
		</g>
		<path class="st7" d="M494,393.2c-10.1-1.5-28-2.2-52.5,1.7c-4.6,0.6-12.7,2.3-17,3.2c-1.6,0.3-2.7,1.7-2.7,3.3v27.8
			c0,2.2,2,3.8,4.1,3.3c9.9-2.2,20.6-5.2,32.9-5.9c10.5-0.6,21-1,36.8,1.2c2,0.3,3.9-1.3,3.9-3.4v-27.4c0-1.7-1.2-3.1-2.8-3.4
			C495.8,393.4,494.9,393.3,494,393.2"/>
		<path class="st30" d="M302.4,449.1c0.1-0.4,0.2-0.8,0.2-1.2c-0.2-3.6-2.4-5.4-3.6-8.8c-0.5-1.5,2-4.8-1.2-5.6
			c-3.4-0.8-9.9-0.3-12.2-3.4c-1-1.4-2.3-3.2-3.9-2.7c-0.6,0.1-1,0.5-1.4,0.9c-13.8,13.3-0.4,29.4,14.7,28.9c1.3,0,2.1-0.1,3.2-0.7
			c1.7-1,2.4-2.7,3.2-4.4C301.7,451.3,302.1,450.2,302.4,449.1"/>
		<path class="st20" d="M275.9,451.5c-3.4,1.4-7.6,0-10-2.9c-2.3-2.9-3-6.9-2.4-10.5c0.6-3.7,2.3-7,4.4-10.1
			c2.4-3.7,5.4-7.2,9.5-8.8c2.3-0.9,4.8-1.1,7.2-1.1c1.7,0,3.5,0.1,4.7,1.2c0.9,0.8,1.2,2,1.4,3.2c1.6,7.5,0.4,8.6-4.6,13.6
			C281.9,440.5,278.7,446,275.9,451.5"/>
		<path class="st2" d="M640.3,175.5c-0.3-0.2-0.6-0.4-0.8-0.6c-1.9-2.2-1.5-4.3-2.7-6.8c-0.5-1.1-4.1-1.8-2.4-3.8
			c0.6-0.7,2.4-2.3,3.8-3.9c2.4-2.8,0.2-6.9,2.7-10c2.2-2.7,10-5.2,12.7-1.2c1,1.5-0.4,3.9-0.2,5.5c0.3,2.5,2.3,4.2,3.3,6.5
			c0.8,2.1,1.3,4.9,1.1,7c-0.2,4.2-4.5,6.4-8,8.7c-0.9,0.6-1.4,0.9-2.5,1.1c-1.7,0.2-3.1-0.5-4.6-1.1
			C641.9,176.4,641.1,176,640.3,175.5"/>
		<path class="st1" d="M662.7,163.5c3.3-1.6,4.9-5.6,4.3-9.2c-0.6-3.6-3.1-6.6-6.2-8.6c-3.1-1.9-6.7-2.8-10.3-3.4
			c-4.3-0.6-8.8-0.7-12.6,1.3c-2.1,1.1-3.9,2.8-5.5,4.6c-1.1,1.2-2.2,2.6-2.1,4.2c0.1,1.2,0.7,2.2,1.4,3.1c4.4,6.1,6.1,5.8,12.9,5.5
			C650.7,160.7,656.8,161.9,662.7,163.5"/>
		<path class="st2" d="M490.1,169.4c0.3-0.1,0.6-0.3,0.9-0.5c2.3-1.8,2.1-4,3.7-6.3c0.7-1,4.3-1.2,3-3.4c-0.5-0.8-2-2.7-3.1-4.4
			c-1.9-3.2,1-6.8-1-10.4c-1.7-3-9-6.8-12.4-3.3c-1.3,1.3-0.2,3.9-0.7,5.5c-0.7,2.4-3,3.7-4.3,5.9c-1.1,1.9-2.1,4.6-2.3,6.8
			c-0.4,4.2,3.4,7.1,6.4,9.9c0.8,0.7,1.3,1.2,2.3,1.5c1.6,0.5,3.2,0.1,4.7-0.3C488.3,170,489.2,169.8,490.1,169.4"/>
		<path class="st1" d="M469.9,153.9c-3-2.1-3.9-6.3-2.8-9.8c1.2-3.4,4.1-6,7.5-7.4c3.3-1.4,7.1-1.7,10.7-1.6
			c4.3,0.1,8.8,0.8,12.2,3.4c1.9,1.4,3.4,3.4,4.7,5.4c0.9,1.4,1.8,2.9,1.4,4.5c-0.2,1.1-1.1,2-1.9,2.9c-5.4,5.3-7,4.8-13.7,3.3
			C482.2,153.1,476,153.3,469.9,153.9"/>
	</g>
	<g>
		<g class="st36">
			<path class="st37" d="M445.8,237.5h10.8V265h5v7.7h-5v10.6h-9.9v-10.6h-16.3V265L445.8,237.5z M447.8,265.6V247l-10.1,18.6H447.8
				z"/>
			<path class="st37" d="M496,260.3c0,8.1-1.2,14.2-3.5,18c-2.4,3.8-6.2,5.8-11.5,5.8c-5.5,0-9.5-2.1-11.7-6.1
				c-2.2-4-3.4-9.6-3.4-16.7c0-8.1,1.2-14.2,3.5-18c2.4-3.8,6.2-5.8,11.5-5.8c5.5,0,9.5,2.1,11.7,6.1S496,253.2,496,260.3z
				 M485.5,260.9c0-6.8-0.3-11.2-0.9-13.2c-0.6-1.9-1.8-3-3.7-3c-1.6,0-2.8,0.9-3.5,2.5c-0.7,1.6-1,6.2-1,13.6
				c0,7.4,0.3,11.8,1,13.6c0.7,1.8,1.9,2.5,3.5,2.5c1.6,0,2.8-0.7,3.5-2.4C485.2,273,485.5,268.4,485.5,260.9z"/>
			<path class="st37" d="M515.3,237.5h10.8V265h5v7.7H526v10.6h-9.9v-10.6h-16.3V265L515.3,237.5z M516.9,265.6V247l-10.1,18.6
				H516.9z"/>
			<g>
				<path class="st37" d="M608.8,252.5h18.6v5.2h-11.8v7.1h9.2v5.2h-9.2v7.5h11.8v5.5h-18.6C608.7,283,608.7,252.5,608.8,252.5z"/>
				<path class="st37" d="M630.7,252.5h9.6c1.9,0,3.3,0.1,4.3,0.3c1,0.2,2,0.6,3,1.4s1.8,1.8,2.4,3.1c0.6,1.3,0.9,2.8,0.9,4.4
					c0,3.8-1.4,6.5-4.3,8l5.6,13.3h-7.4l-4.1-12.1h-3.4V283h-6.7v-30.6L630.7,252.5L630.7,252.5z M637.4,257.4v8.6h3
					c2.6,0,3.9-1.5,3.9-4.4c0-1-0.2-1.8-0.6-2.5c-0.4-0.6-0.8-1.1-1.4-1.3c-0.5-0.2-1.3-0.3-2.3-0.3h-2.6
					C637.4,257.5,637.4,257.4,637.4,257.4z"/>
				<path class="st37" d="M655.6,252.5h9.6c1.9,0,3.3,0.1,4.3,0.3c1,0.2,2,0.6,3,1.4c1,0.8,1.8,1.8,2.4,3.1c0.6,1.3,0.9,2.8,0.9,4.4
					c0,3.8-1.4,6.5-4.3,8l5.6,13.3h-7.3l-4.1-12.1h-3.4V283h-6.7V252.5z M662.3,257.4v8.6h3c2.6,0,3.9-1.5,3.9-4.4
					c0-1-0.2-1.8-0.6-2.5c-0.4-0.6-0.8-1.1-1.4-1.3c-0.5-0.2-1.3-0.3-2.3-0.3h-2.6V257.4z"/>
				<path class="st37" d="M701.8,267.7c0,10.5-3.7,15.7-11.1,15.7c-3.7,0-6.4-1.3-8.3-4c-1.9-2.7-2.8-6.6-2.8-11.7
					c0-10.5,3.7-15.7,11.1-15.7c3.6,0,6.4,1.3,8.2,3.9C700.7,258.5,701.8,262.5,701.8,267.7z M694.7,267.7c0-4.1-0.3-6.9-1-8.2
					c-0.6-1.4-1.7-2-3.1-2s-2.4,0.7-3,2.1c-0.6,1.4-1,4.1-1,8.2c0,4,0.3,6.7,1,8.2c0.6,1.4,1.7,2.1,3.1,2.1c1.4,0,2.4-0.7,3.1-2
					C694.5,274.8,694.7,271.9,694.7,267.7z"/>
				<path class="st37" d="M706.5,252.5h9.6c1.9,0,3.3,0.1,4.3,0.3c1,0.2,2,0.6,3,1.4c1,0.8,1.8,1.8,2.4,3.1c0.6,1.3,0.9,2.8,0.9,4.4
					c0,3.8-1.4,6.5-4.3,8L728,283h-7.3l-4.1-12.1h-3.4V283h-6.7C706.5,283,706.5,252.5,706.5,252.5z M713.2,257.4v8.6h3
					c2.6,0,3.9-1.5,3.9-4.4c0-1-0.2-1.8-0.6-2.5c-0.4-0.6-0.8-1.1-1.4-1.3c-0.5-0.2-1.3-0.3-2.3-0.3h-2.6V257.4z"/>
			</g>
		</g>
	</g>
	<path class="st38" d="M971.3,510h-38.6c-4.7,0-8.6-3.8-8.6-8.6l0,0c0-4.7,3.8-8.6,8.6-8.6h38.6c4.7,0,8.6,3.8,8.6,8.6l0,0
		C979.9,506,975.9,510,971.3,510z"/>
	<path class="st38" d="M952,476.6c-0.3,3.6-3.3,6.2-6.7,5.9c-3.3-0.3-5.9-3.5-5.6-7.1s3.3-6.2,6.7-5.9
		C949.8,469.8,952.3,472.9,952,476.6z"/>
	<path class="st38" d="M994.5,518.1c-0.3,3.9-3.3,6.9-6.9,6.7c-3.6-0.3-6.4-3.6-6.4-7.5c0.3-3.9,3.3-6.9,6.9-6.7
		C991.8,510.6,994.5,513.9,994.5,518.1z"/>
	<path class="st38" d="M1007.3,506.9c0,3.1-2.8,5.5-5.5,5.2c-2.8,0-5.2-2.8-4.8-5.9c0-3.1,2.8-5.5,5.5-5.2
		C1005.2,501,1007.6,503.8,1007.3,506.9z"/>
	<path class="st38" d="M109.5,487.4H44c-5.3,0-9.6,4.3-9.6,9.6l0,0c0,5.3,4.3,9.6,9.6,9.6h65.5c5.3,0,9.6-4.3,9.6-9.6l0,0
		C119.1,491.6,114.6,487.4,109.5,487.4z"/>
	<path class="st38" d="M51.8,457.3H40.6c-5.3,0-9.6,4.3-9.6,9.6l0,0c0,5.3,4.3,9.6,9.6,9.6h11.2c5.3,0,9.6-4.3,9.6-9.6l0,0
		C61.4,461.7,57.1,457.3,51.8,457.3z"/>
	<path class="st38" d="M31.3,450.9c-0.3,3.4-3.1,5.8-6.2,5.5c-3.1-0.3-5.5-3.2-5.2-6.6c0.3-3.4,3.1-5.8,6.2-5.5
		C29.3,444.7,31.6,447.7,31.3,450.9z"/>
	<path class="st38" d="M108,474.2c-0.1,2.1-1.8,3.7-3.7,3.5c-1.9-0.1-3.4-1.9-3.4-4c0.1-2.1,1.8-3.7,3.7-3.5
		C106.8,470.4,108.3,472.2,108,474.2z"/>
	<path class="st38" d="M85.3,471.3c0,1.7-1.5,3-3,2.8s-2.8-1.5-2.6-3.2c0-1.7,1.5-3,3-2.8S85.3,469.6,85.3,471.3z"/>
</g>
</svg>
